<svg width="281" height="280" viewBox="0 0 281 280" fill="none" xmlns="http://www.w3.org/2000/svg">
<g clip-path="url(#clip0_1_5214)">
<path d="M280.609 97.7373C280.387 89.8174 279.508 81.951 277.985 74.2744C277.896 73.8295 277.803 73.3845 277.71 72.9396C274.975 59.8882 270.348 47.4538 263.848 36.4016C253.005 17.9813 238.02 4.65112 221.215 1.21623C204.871 -3.68398 193.98 6.95291 183.306 19.8501C183.124 20.0696 182.942 20.2891 182.76 20.5145C182.427 20.9179 182.099 21.3154 181.77 21.7188C178.076 26.2631 174.093 30.3031 169.897 33.8151C168.086 35.3397 166.234 36.7576 164.343 38.0746C152.28 46.4809 138.724 50.7582 124.902 50.1768C112.977 49.6785 100.753 47.1453 88.6099 45.1223C88.3213 45.0749 88.0371 45.0274 87.7485 44.9799C84.8447 44.4994 81.9454 44.0545 79.0594 43.6807C68.8207 42.34 58.7064 41.8417 48.9517 43.7341C47.7618 44.007 46.5941 44.3036 45.453 44.624C29.3802 49.0496 17.9383 57.3372 10.6434 68.425C10.4347 68.7454 10.2216 69.0657 10.0262 69.3861C2.88668 80.7586 -0.0170838 94.9371 0.799877 110.836C1.27052 119.883 2.9444 129.488 5.73272 139.442C8.23688 148.365 11.629 157.566 15.8559 166.898C15.998 167.206 16.1312 167.509 16.2777 167.817C17.8451 171.252 19.5323 174.711 21.326 178.175C22.2362 179.925 23.253 181.563 24.1587 183.319C30.4991 195.563 37.0392 207.85 44.121 219.287C49.3247 227.7 54.8259 235.661 60.7666 242.815C66.7162 249.994 73.1098 256.359 80.0806 261.568C88.5122 267.868 98.0804 272.454 107.515 275.533C107.893 275.658 108.275 275.782 108.656 275.901C112.874 277.224 117.053 278.256 121.08 279.003C135.865 281.744 150.925 278.784 164.565 270.686C166.63 269.458 168.708 268.194 170.785 266.889C171.376 266.516 171.975 266.142 172.566 265.756C181.237 260.227 189.993 254.004 198.584 247.105C198.833 246.915 199.073 246.719 199.317 246.523C228.723 222.764 256.074 191.156 271.241 152.654C272.679 149 273.962 145.262 275.068 141.465C279.188 127.376 281.031 112.473 280.618 97.7313L280.609 97.7373Z" fill="#FEFFCC"/>
</g>
<g clip-path="url(#clip1_1_5214)">
<path d="M68.7634 99.093C70.8207 98.2911 73.1957 98.6477 74.9472 99.9979L74.9479 99.9985C75.9457 100.766 76.5547 101.747 77.1509 103.022C77.8559 104.531 78.5122 105.826 79.4062 106.953C80.3158 108.101 81.4407 109.039 83.0458 109.91L83.0456 109.91C84.2233 110.549 85.2315 111.105 85.922 111.821C86.5487 112.472 86.9004 113.241 86.7293 114.414C86.396 116.697 84.163 118.453 81.7874 119.422L81.7871 119.422C76.4519 121.6 70.4582 120.523 67.4249 116.413L66.3758 114.992L65.8857 116.169C64.709 113.637 63.8897 110.048 64.1008 106.752C64.3275 103.214 65.7023 100.286 68.7634 99.093ZM68.7634 99.093L68.4002 98.1613L68.7634 99.093Z" fill="#FFC51E" stroke="#FFE21F" stroke-width="2"/>
<path d="M124.81 112.993C123.57 109.284 117.921 107.012 114.773 105.62C114.526 105.51 114.262 105.509 114.01 105.563C112.586 104.606 111.143 103.711 109.553 102.911C107.752 102.004 105.725 100.591 103.67 101.001C103.347 101.066 103.133 101.409 103.138 101.735C100.76 98.7951 98.3558 95.825 97.1459 92.1321C96.8276 91.1594 95.5151 91.5783 95.6518 92.5438C96.9121 101.465 106.148 106.481 106.535 115.552C106.596 117.004 108.142 117.458 109.185 116.65C110.835 115.374 111.961 113.986 112.737 112.287C115.346 115.386 117.302 118.815 118.777 122.673C119.271 123.97 120.796 124.155 121.605 123.044C123.48 120.467 125.936 116.37 124.809 112.997L124.81 112.993Z" fill="#2F1409"/>
<path d="M157.949 117.712C159.141 118.397 160.457 117.606 160.38 116.221C160.154 112.097 160.542 108.168 161.66 104.276C163.061 105.511 164.655 106.318 166.684 106.813C167.965 107.126 169.192 106.083 168.656 104.731C165.31 96.2896 171.7 87.9454 169.213 79.2849C168.944 78.3482 167.575 78.501 167.681 79.5186C168.082 83.3859 167.097 87.0771 166.124 90.7304C165.997 90.432 165.661 90.2036 165.34 90.2773C163.298 90.7412 162.023 92.8573 160.749 94.4197C159.623 95.7987 158.67 97.2047 157.76 98.6592C157.509 98.7132 157.27 98.821 157.088 99.0224C154.781 101.577 150.549 105.955 150.928 109.848C151.274 113.386 155.186 116.126 157.949 117.715V117.712Z" fill="#2F1409"/>
<path d="M92.3827 85.166C91.785 84.6319 91.2525 83.994 90.7651 83.3891L92.0587 82.0488L92.1432 81.9612C92.1296 81.951 92.098 81.9325 92.0504 81.9224C92.0034 81.9125 91.9602 81.9149 91.9276 81.9223C91.9197 81.9241 91.9129 81.926 91.907 81.9279C91.8925 81.9327 91.8841 81.9374 91.8806 81.9397M92.3827 85.166L132.454 84.1155C131.534 83.9107 130.618 83.6964 129.705 83.4826C125.766 82.5608 121.859 81.6465 117.777 81.5283L117.811 80.5289C117.811 80.5288 117.81 80.5288 117.809 80.5288C113.637 80.3875 109.784 81.2847 105.976 82.1715C105.091 82.3776 104.208 82.5832 103.324 82.775L103.32 82.776C99.6634 83.5864 96.0662 83.3301 93.1769 81.6762L92.4326 81.2502L91.8981 81.9208C91.8896 81.9315 91.8835 81.9372 91.8806 81.9397M92.3827 85.166C92.38 85.1694 92.377 85.1729 92.3738 85.1762C92.359 85.1916 92.3488 85.1951 92.3493 85.195L92.336 85.1993L92.3228 85.2039C91.3868 85.5335 90.5464 85.3631 89.7059 84.7965C88.8246 84.2024 87.9784 83.1875 87.1862 81.9162C85.9459 79.9256 84.9814 77.5585 84.2383 75.7346C84.028 75.2186 83.8355 74.7462 83.6595 74.338L83.6583 74.3353C82.2064 70.9953 81.7439 66.9625 81.2983 63.0768C81.2248 62.4366 81.1519 61.8003 81.075 61.1719C80.4984 56.2723 80.2753 51.2909 81.4169 46.6087L81.4185 46.6019C81.6022 45.8246 81.8304 45.0901 82.1064 44.3529L82.1361 44.2734L82.1521 44.19C82.3384 43.215 82.5951 42.2116 82.8987 41.2257L82.9007 41.2189C83.6772 38.6325 84.7855 36.0348 86.1337 33.5495L86.1348 33.5475C89.0494 28.1447 93.1073 23.2104 97.346 19.5387L97.5274 19.3816L97.6177 19.1593C97.8037 18.7014 97.9867 18.2465 98.1684 17.7945C98.6556 16.5833 99.1343 15.3929 99.6406 14.2233C99.9028 13.6174 100.149 13.02 100.392 12.4287C100.827 11.3722 101.253 10.3351 101.751 9.30458C102.513 7.72902 103.386 6.29835 104.556 5.12824C107.782 1.90217 112.939 0.710238 117.601 1.53667L117.609 1.53807L117.617 1.53935C118.192 1.6318 118.731 1.74422 119.262 1.89874L119.471 1.95958L119.686 1.928C120.491 1.80991 121.299 1.71439 122.125 1.61706L122.125 1.617C123.947 1.40128 125.724 1.23337 127.434 1.0883C130.009 0.877822 132.911 1.02251 135.41 1.68713C139.55 2.79879 141.652 5.72486 144.097 9.12988C144.334 9.46084 144.575 9.79633 144.822 10.1351L145.016 10.4021L145.331 10.501L145.368 10.5128C146.215 10.7789 146.923 11.0014 147.49 11.2411L147.499 11.245L147.508 11.2486C149.823 12.1742 152.014 12.978 154.347 13.7805C157.483 14.8719 160.239 16.5263 162.938 18.6075L162.941 18.6103C168.509 22.863 173.64 28.1897 176.156 34.6661C176.819 36.3954 177.386 38.1686 177.836 39.9644C177.957 40.4513 178.07 40.9084 178.161 41.3837L178.165 41.4003L178.168 41.4167C178.856 44.4498 179.26 47.5587 179.401 50.6941L179.402 50.7069C179.545 53.1775 179.521 55.6771 179.379 58.1355L179.377 58.1608C179.196 61.0774 178.898 64.3459 178.162 67.445C177.423 70.5591 176.259 73.4256 174.399 75.5778C172.347 77.9313 169.378 79.4361 166.06 80.521C163.45 81.3748 160.714 81.9426 158.125 82.4801C157.415 82.6275 156.716 82.7726 156.033 82.9207L92.3827 85.166ZM91.8806 81.9397C91.8792 81.9405 91.8786 81.941 91.8786 81.9411C91.8785 81.9412 91.8792 81.9408 91.8806 81.9397Z" fill="#FFED30"/>
<path d="M92.3827 85.166C91.785 84.6319 91.2525 83.994 90.7651 83.3891L92.0587 82.0488L92.1432 81.9612C92.1296 81.951 92.098 81.9325 92.0504 81.9224C92.0034 81.9125 91.9602 81.9149 91.9276 81.9223C91.9197 81.9241 91.9129 81.926 91.907 81.9279C91.8925 81.9327 91.8841 81.9374 91.8806 81.9397M92.3827 85.166L132.454 84.1155C131.534 83.9107 130.618 83.6964 129.705 83.4826C125.766 82.5608 121.859 81.6465 117.777 81.5283L117.811 80.5289C117.811 80.5288 117.81 80.5288 117.809 80.5288C113.637 80.3875 109.784 81.2847 105.976 82.1715C105.091 82.3776 104.208 82.5832 103.324 82.775L103.32 82.776C99.6634 83.5864 96.0662 83.3301 93.1769 81.6762L92.4326 81.2502L91.8981 81.9208C91.8896 81.9315 91.8835 81.9372 91.8806 81.9397M92.3827 85.166C92.38 85.1694 92.377 85.1729 92.3738 85.1762C92.359 85.1916 92.3488 85.1951 92.3493 85.195L92.336 85.1993L92.3228 85.2039C91.3868 85.5335 90.5464 85.3631 89.7059 84.7965C88.8246 84.2024 87.9784 83.1875 87.1862 81.9162C85.9459 79.9256 84.9814 77.5585 84.2383 75.7346C84.028 75.2186 83.8355 74.7462 83.6595 74.338L83.6583 74.3353C82.2064 70.9953 81.7439 66.9625 81.2983 63.0768C81.2248 62.4366 81.1519 61.8003 81.075 61.1719C80.4984 56.2723 80.2753 51.2909 81.4169 46.6087L81.4185 46.6019C81.6022 45.8246 81.8304 45.0901 82.1064 44.3529L82.1361 44.2734L82.1521 44.19C82.3384 43.215 82.5951 42.2116 82.8987 41.2257L82.9007 41.2189C83.6772 38.6325 84.7855 36.0348 86.1337 33.5495L86.1348 33.5475C89.0494 28.1447 93.1073 23.2104 97.346 19.5387L97.5274 19.3816L97.6177 19.1593C97.8037 18.7014 97.9867 18.2465 98.1684 17.7945C98.6556 16.5833 99.1343 15.3929 99.6406 14.2233C99.9028 13.6174 100.149 13.02 100.392 12.4287C100.827 11.3722 101.253 10.3351 101.751 9.30458C102.513 7.72902 103.386 6.29835 104.556 5.12824C107.782 1.90217 112.939 0.710238 117.601 1.53667L117.609 1.53807L117.617 1.53935C118.192 1.6318 118.731 1.74422 119.262 1.89874L119.471 1.95958L119.686 1.928C120.491 1.80991 121.299 1.71439 122.125 1.61706L122.125 1.617C123.947 1.40128 125.724 1.23337 127.434 1.0883C130.009 0.877822 132.911 1.02251 135.41 1.68713C139.55 2.79879 141.652 5.72486 144.097 9.12988C144.334 9.46084 144.575 9.79633 144.822 10.1351L145.016 10.4021L145.331 10.501L145.368 10.5128C146.215 10.7789 146.923 11.0014 147.49 11.2411L147.499 11.245L147.508 11.2486C149.823 12.1742 152.014 12.978 154.347 13.7805C157.483 14.8719 160.239 16.5263 162.938 18.6075L162.941 18.6103C168.509 22.863 173.64 28.1897 176.156 34.6661C176.819 36.3954 177.386 38.1686 177.836 39.9644C177.957 40.4513 178.07 40.9084 178.161 41.3837L178.165 41.4003L178.168 41.4167C178.856 44.4498 179.26 47.5587 179.401 50.6941L179.402 50.7069C179.545 53.1775 179.521 55.6771 179.379 58.1355L179.377 58.1608C179.196 61.0774 178.898 64.3459 178.162 67.445C177.423 70.5591 176.259 73.4256 174.399 75.5778C172.347 77.9313 169.378 79.4361 166.06 80.521C163.45 81.3748 160.714 81.9426 158.125 82.4801C157.415 82.6275 156.716 82.7726 156.033 82.9207L92.3827 85.166ZM91.8806 81.9397C91.8792 81.9405 91.8786 81.941 91.8786 81.9411C91.8785 81.9412 91.8792 81.9408 91.8806 81.9397Z" fill="url(#paint0_linear_1_5214)"/>
<path d="M92.3827 85.166C91.785 84.6319 91.2525 83.994 90.7651 83.3891L92.0587 82.0488L92.1432 81.9612C92.1296 81.951 92.098 81.9325 92.0504 81.9224C92.0034 81.9125 91.9602 81.9149 91.9276 81.9223C91.9197 81.9241 91.9129 81.926 91.907 81.9279C91.8925 81.9327 91.8841 81.9374 91.8806 81.9397M92.3827 85.166L132.454 84.1155C131.534 83.9107 130.618 83.6964 129.705 83.4826C125.766 82.5608 121.859 81.6465 117.777 81.5283L117.811 80.5289C117.811 80.5288 117.81 80.5288 117.809 80.5288C113.637 80.3875 109.784 81.2847 105.976 82.1715C105.091 82.3776 104.208 82.5832 103.324 82.775L103.32 82.776C99.6634 83.5864 96.0662 83.3301 93.1769 81.6762L92.4326 81.2502L91.8981 81.9208C91.8896 81.9315 91.8835 81.9372 91.8806 81.9397M92.3827 85.166C92.38 85.1694 92.377 85.1729 92.3738 85.1762C92.359 85.1916 92.3488 85.1951 92.3493 85.195L92.336 85.1993L92.3228 85.2039C91.3868 85.5335 90.5464 85.3631 89.7059 84.7965C88.8246 84.2024 87.9784 83.1875 87.1862 81.9162C85.9459 79.9256 84.9814 77.5585 84.2383 75.7346C84.028 75.2186 83.8355 74.7462 83.6595 74.338L83.6583 74.3353C82.2064 70.9953 81.7439 66.9625 81.2983 63.0768C81.2248 62.4366 81.1519 61.8003 81.075 61.1719C80.4984 56.2723 80.2753 51.2909 81.4169 46.6087L81.4185 46.6019C81.6022 45.8246 81.8304 45.0901 82.1064 44.3529L82.1361 44.2734L82.1521 44.19C82.3384 43.215 82.5951 42.2116 82.8987 41.2257L82.9007 41.2189C83.6772 38.6325 84.7855 36.0348 86.1337 33.5495L86.1348 33.5475C89.0494 28.1447 93.1073 23.2104 97.346 19.5387L97.5274 19.3816L97.6177 19.1593C97.8037 18.7014 97.9867 18.2465 98.1684 17.7945C98.6556 16.5833 99.1343 15.3929 99.6406 14.2233C99.9028 13.6174 100.149 13.02 100.392 12.4287C100.827 11.3722 101.253 10.3351 101.751 9.30458C102.513 7.72902 103.386 6.29835 104.556 5.12824C107.782 1.90217 112.939 0.710238 117.601 1.53667L117.609 1.53807L117.617 1.53935C118.192 1.6318 118.731 1.74422 119.262 1.89874L119.471 1.95958L119.686 1.928C120.491 1.80991 121.299 1.71439 122.125 1.61706L122.125 1.617C123.947 1.40128 125.724 1.23337 127.434 1.0883C130.009 0.877822 132.911 1.02251 135.41 1.68713C139.55 2.79879 141.652 5.72486 144.097 9.12988C144.334 9.46084 144.575 9.79633 144.822 10.1351L145.016 10.4021L145.331 10.501L145.368 10.5128C146.215 10.7789 146.923 11.0014 147.49 11.2411L147.499 11.245L147.508 11.2486C149.823 12.1742 152.014 12.978 154.347 13.7805C157.483 14.8719 160.239 16.5263 162.938 18.6075L162.941 18.6103C168.509 22.863 173.64 28.1897 176.156 34.6661C176.819 36.3954 177.386 38.1686 177.836 39.9644C177.957 40.4513 178.07 40.9084 178.161 41.3837L178.165 41.4003L178.168 41.4167C178.856 44.4498 179.26 47.5587 179.401 50.6941L179.402 50.7069C179.545 53.1775 179.521 55.6771 179.379 58.1355L179.377 58.1608C179.196 61.0774 178.898 64.3459 178.162 67.445C177.423 70.5591 176.259 73.4256 174.399 75.5778C172.347 77.9313 169.378 79.4361 166.06 80.521C163.45 81.3748 160.714 81.9426 158.125 82.4801C157.415 82.6275 156.716 82.7726 156.033 82.9207L92.3827 85.166ZM91.8806 81.9397C91.8792 81.9405 91.8786 81.941 91.8786 81.9411C91.8785 81.9412 91.8792 81.9408 91.8806 81.9397Z" stroke="#F06700" stroke-width="2"/>
<path d="M161.443 127.771C160.981 127.068 160.318 126.339 159.42 125.584C155.985 122.69 155.835 119.734 155.611 115.489C155.413 111.74 155.06 108.001 154.958 104.249C154.936 103.447 153.982 103.119 153.367 103.504C144.388 109.157 130.747 105.264 121.33 102.03C121.148 100.98 120.959 99.9353 120.76 98.9087C120.596 98.0637 119.359 98.1248 119.395 99.0202C119.429 99.9011 119.501 100.779 119.546 101.658C119.147 101.879 119.01 102.478 119.546 102.769C119.568 102.78 119.591 102.79 119.613 102.803C119.891 107.7 120.264 112.591 120.463 117.494C120.753 124.635 122.349 133.695 114.309 137.292C113.5 137.654 113.746 138.797 114.638 138.792C116.598 138.779 118.14 138.116 119.347 137.062C120.841 140.557 125.514 142.861 128.885 144.027C134.537 145.983 142.613 146.336 147.818 144.222C153.011 142.113 165.72 134.275 161.441 127.771H161.443Z" fill="#E67857"/>
<path d="M156.279 59.5813C153.382 55.91 143.262 54.7755 142.039 60.6565C141.725 62.1685 142.456 63.9089 143.873 64.5238C145.13 65.0686 146.586 64.6838 147.85 64.1588C149.048 63.6608 150.295 63.3354 151.586 63.2131C152.879 63.0891 154.353 63.4666 155.56 62.8913C156.935 62.235 157.18 60.7248 156.277 59.5813H156.279Z" fill="#2F1409"/>
<path d="M98.7852 79.4118L98.8227 79.4947L98.8241 79.4961C99.2722 80.4986 99.6143 81.5525 99.9622 82.6276C100.529 84.3848 101.072 86.084 101.098 87.8159C101.123 89.5373 100.575 91.2853 99.2713 92.4458L99.2713 92.4459C98.1536 93.4411 96.9727 93.7744 95.7984 93.6827C94.6061 93.5896 93.385 93.0546 92.2287 92.2473C89.9069 90.6262 87.988 88.0071 87.2675 86.1878L87.2675 86.1878C86.1118 83.2711 85.3461 79.8646 85.9394 76.8571L85.9394 76.8567C86.2271 75.3933 87.0229 73.9883 88.3531 73.2178L88.3534 73.2177C90.125 72.1903 91.9512 72.5498 93.6356 73.5608C95.3289 74.5772 96.8008 76.2142 97.7434 77.5579C98.1518 78.1406 98.4913 78.7633 98.7852 79.4118Z" fill="#FFAB91" stroke="#E67857"/>
<path d="M167.584 90.5657L167.584 90.5657C168.755 91.4984 169.953 91.7664 171.12 91.6105C172.306 91.4522 173.496 90.8511 174.606 89.9815C176.835 88.2355 178.607 85.515 179.228 83.6588C180.222 80.6837 180.799 77.2412 180.043 74.2697C179.674 72.8248 178.802 71.4662 177.433 70.7696L167.584 90.5657ZM167.584 90.5657C166.219 89.4781 165.575 87.7623 165.507 86.0449C165.443 84.4352 165.827 82.8284 166.26 81.1745H166.261L166.359 80.802C166.655 79.6803 166.949 78.5797 167.358 77.5277L167.358 77.5272C167.615 76.8628 167.919 76.2234 168.296 75.6193L168.296 75.6187M167.584 90.5657L168.296 75.6187M168.296 75.6187C169.163 74.226 170.543 72.5109 172.178 71.4031M168.296 75.6187L172.178 71.4031M172.178 71.4031C173.805 70.3012 175.608 69.8417 177.433 70.7696L172.178 71.4031Z" fill="#FFAB91" stroke="#E67857"/>
<path d="M171.214 64.0253L171.209 64.0196L171.421 65.5004C171.438 65.6203 171.455 65.7401 171.473 65.86C171.528 66.2434 171.583 66.6271 171.636 67.0134L171.636 67.0141C173.327 79.1423 172.345 87.9161 166.909 99.0322L166.909 99.0323C165.335 102.253 163.086 105.087 160.5 107.595C143.177 124.394 113.379 121.387 100.983 100.182L100.554 100.433L100.983 100.182C98.2642 95.5325 94.848 86.373 93.4207 76.2706C91.9925 66.1613 92.5704 55.2112 97.7219 46.9085L97.7219 46.9084C101.278 41.1754 104.423 37.2334 110.546 34.0926C115.212 31.7001 120.235 31.2278 125.389 31.6751C130.128 32.0863 134.941 33.2703 139.669 34.4331C140.092 34.5373 140.515 34.6414 140.938 34.7447L140.938 34.7447C151.129 37.2373 159.714 43.5003 167.408 50.4569C169.511 52.3605 170.583 55.0237 170.645 57.8102C170.692 59.9235 170.931 61.9685 171.214 64.0253Z" fill="#FFAB91" stroke="#E67857"/>
<path d="M132.382 76.0569C132.666 75.6524 133.449 75.825 133.459 76.3536C133.513 78.7915 132.246 80.958 133.715 83.2072C134.416 84.2806 133.132 85.7908 132.039 84.8703C129.353 82.6103 130.676 78.4859 132.382 76.0587V76.0569Z" fill="#E67857"/>
<path d="M117.074 78.5042C116.893 78.4341 116.711 78.3496 116.537 78.2705C115.379 77.7563 113.994 77.5172 112.865 78.0925C112.349 78.355 111.923 78.7685 111.422 79.058C110.92 79.3474 110.267 79.4967 109.771 79.1982C109.19 78.8476 109.073 78.0278 109.257 77.3751C109.525 76.415 110.274 75.6527 111.121 75.1295C113.068 73.9285 115.889 73.7451 117.801 75.1367C118.37 75.552 118.829 76.1472 118.973 76.8376C119.122 77.5567 118.807 78.4413 118.097 78.6301C117.756 78.72 117.412 78.6373 117.076 78.5078L117.074 78.5042Z" fill="#381F15"/>
<path d="M149.233 74.4751C149.393 74.3618 149.546 74.2359 149.697 74.1173C150.693 73.3334 151.975 72.7599 153.212 73.0385C153.777 73.1662 154.291 73.461 154.85 73.6175C155.407 73.7739 156.076 73.7577 156.484 73.346C156.961 72.8623 156.871 72.0407 156.533 71.451C156.037 70.588 155.123 70.0324 154.172 69.734C151.989 69.049 149.21 69.5686 147.701 71.388C147.252 71.931 146.955 72.6214 146.986 73.3244C147.018 74.0579 147.541 74.8382 148.277 74.8454C148.629 74.849 148.942 74.6836 149.235 74.4751H149.233Z" fill="#381F15"/>
<path d="M143.822 93.7723C142.051 91.8234 142.144 90.3509 141.617 87.9345C141.394 86.9133 140.679 86.8755 140.289 87.7475C139.857 88.713 139.796 89.772 139.963 90.8291C139.395 91.3595 138.78 91.7569 137.827 91.6112C137.162 91.5087 136.63 91.1384 135.925 91.1564C134.954 91.1833 134.271 91.6022 133.494 92.1272C132.351 92.9003 131.856 93.668 130.17 93.2905C129.196 93.0711 128.636 92.3717 127.863 93.4343C127.619 93.7705 127.711 94.2613 127.962 94.5922C128.214 94.923 128.591 95.1279 128.958 95.3239C128.949 95.1927 128.881 95.0668 128.775 94.9877C130.612 96.0341 132.295 95.3707 133.976 94.4321C134.588 94.0905 134.8 93.7597 135.533 93.5494C136.578 93.2509 136.305 93.5296 137.191 93.6501C138.629 93.846 139.598 93.695 140.679 92.8392C141.161 93.8316 141.783 94.7468 142.434 95.4731C143.574 96.7461 145.008 94.9985 143.823 93.7723H143.822Z" fill="#E67857"/>
<path d="M95.2574 88.0022C93.6968 85.7027 95.0362 83.8275 94.4429 81.4812C93.9773 79.6401 92.0625 78.4517 91.8054 76.5315C91.6615 75.4492 90.8615 75.2137 90.1962 76.1594C89.5814 77.0331 90.3095 78.752 90.7248 79.5682C91.0521 80.2137 91.7227 80.753 91.9798 81.4237C92.44 82.6265 91.8108 84.1313 91.8683 85.3988C91.933 86.8084 92.4796 88.0921 93.2725 89.2392C94.1247 90.4708 96.106 89.2554 95.2574 88.004V88.0022Z" fill="#E67857"/>
<path d="M175.632 77.3017C175.792 76.1528 175.817 75.0399 174.873 74.2722C174.598 74.0493 174.254 74.1068 174.06 74.3999C173.629 75.0489 173.69 75.2413 173.598 76.0198C173.481 77.0033 173.136 77.8177 172.897 78.7598C172.755 79.3208 172.679 79.8494 172.741 80.4337C172.865 81.6257 174.352 83.5495 172.356 84.4322C171.424 84.8422 171.471 86.4207 172.669 86.3452C174.995 86.1996 175.822 83.99 175.464 81.917C175.256 80.707 174.936 80.3402 175.206 78.954C175.315 78.3948 175.553 77.8788 175.632 77.3035V77.3017Z" fill="#E67857"/>
<path d="M145.753 46.3799C147.756 47.37 149.825 48.2119 151.894 48.9396C152.691 49.2204 153.472 49.4786 154.236 49.7313C155.839 50.2614 157.369 50.767 158.809 51.4063C160.429 53.8964 161.952 56.4836 163.306 59.096L145.753 46.3799ZM145.753 46.3799C145.447 45.8876 145.138 45.3989 144.829 44.9172L143.987 45.457L143.504 46.3323C144.015 46.6149 144.532 46.8867 145.053 47.1484C145.297 47.5423 145.539 47.938 145.776 48.3337C146.26 49.1086 145.654 50.2448 144.712 50.1963C138.959 49.9635 134.12 46.3958 129.616 43.0745C129.424 42.9332 129.233 42.7924 129.043 42.6522M145.753 46.3799L149.927 19.7303C149.857 22.7662 149.136 26.0223 147.694 28.7924C147.523 29.1203 147.547 29.5155 147.756 29.8202C147.966 30.1249 148.326 30.2894 148.693 30.2479C154.238 29.6216 160.712 31.3557 164.618 34.4616L164.622 34.4647C167.585 36.7964 169.277 39.8337 170.224 43.2553C170.27 43.4218 170.359 43.5734 170.481 43.6956C170.563 43.7781 170.582 43.7976 170.602 43.8246L170.612 43.838C172.241 45.962 173.172 48.5253 173.803 51.2894C174.237 53.1883 174.517 55.1103 174.796 57.0281C174.926 57.9205 175.055 58.812 175.2 59.6998C175.202 59.7139 175.204 59.728 175.207 59.742C175.264 60.0896 175.322 60.4303 175.379 60.7647C176 64.4118 176.493 67.3015 174.335 69.9673C174.327 69.9756 174.251 70.0433 174.046 70.0117C173.834 69.9789 173.72 69.8702 173.692 69.823C173.211 68.8821 172.82 67.938 172.497 66.9931C172.372 66.6262 172.046 66.3647 171.661 66.3221C171.275 66.2795 170.9 66.4636 170.698 66.7943C170.408 67.2687 170.121 67.498 169.87 67.5912C169.64 67.677 169.297 67.7008 168.763 67.4654L168.761 67.4646C168.239 67.2357 168.042 66.8647 167.626 66.0804C167.565 65.9658 167.5 65.8424 167.428 65.7094C166.847 64.6041 166.349 63.4454 165.837 62.246L165.789 62.1333C165.296 60.9793 164.787 59.7874 164.195 58.6377L164.194 58.6359C162.823 55.9915 161.283 53.3759 159.647 50.861C159.542 50.6988 159.392 50.5707 159.215 50.4923C157.729 49.8329 156.12 49.3008 154.49 48.7616C153.737 48.5125 152.979 48.2619 152.227 47.9965L152.226 47.9962C149.581 47.0659 146.95 45.951 144.471 44.5817C144.07 44.3603 143.57 44.4393 143.257 44.7734C142.944 45.1075 142.898 45.6114 143.145 45.9968C143.745 46.9323 144.344 47.8911 144.919 48.8484L144.928 48.8631C144.944 48.8895 144.969 48.9726 144.905 49.0872C144.877 49.1376 144.843 49.1682 144.82 49.183C144.8 49.1947 144.785 49.1988 144.763 49.1976V49.1976L144.752 49.1971C139.313 48.977 134.704 45.5808 130.12 42.2035C129.959 42.0848 129.798 41.9661 129.637 41.8476M129.043 42.6522L129.638 41.8483C129.637 41.8481 129.637 41.8478 129.637 41.8476M129.043 42.6522C126.722 40.9352 124.377 39.0744 122.443 36.8737L106.899 29.1954C104.005 29.779 101.374 31.3578 98.588 33.0305C98.396 33.1458 98.2033 33.2615 98.0097 33.3773C95.0817 35.1293 91.9449 36.9182 88.3983 37.1681C88.308 37.1751 88.268 37.2048 88.2469 37.2256C88.2184 37.2536 88.1948 37.2972 88.1872 37.3483C88.1797 37.3989 88.1912 37.4314 88.1994 37.4453L88.1996 37.4458C88.2027 37.4512 88.2223 37.4861 88.3167 37.5164L88.3176 37.5167C90.546 38.2346 92.7275 38.8508 94.9447 39.2753C95.304 39.344 95.5971 39.6035 95.7089 39.9518C95.8207 40.3001 95.7333 40.6817 95.4812 40.9467C93.1538 43.393 91.2039 46.14 89.7038 49.1436C89.6657 49.22 89.618 49.2911 89.5618 49.3553C86.1522 53.252 82.2659 56.8308 76.4214 58.0027C76.4217 58.0071 76.4221 58.0114 76.4227 58.0156C76.4231 58.0185 76.4235 58.0211 76.424 58.0236C79.3925 59.6036 82.5702 61.2104 85.619 61.4338C85.8206 61.4485 86.0129 61.524 86.1707 61.6502C86.1942 61.6691 86.2936 61.7206 86.4647 61.7206C86.951 61.7206 87.3561 62.0676 87.4461 62.5275C87.4521 62.5473 87.4615 62.577 87.475 62.6182C87.5106 62.7268 87.5644 62.8837 87.635 63.0849C87.7755 63.4858 87.9736 64.0383 88.2042 64.6804L88.2047 64.6819C89.1812 67.4154 90.7113 71.5697 90.9078 72.0065L90.9175 72.0287C92.0276 74.6651 93.3283 76.4606 94.9825 77.8965C96.6551 79.3483 98.734 80.4729 101.479 81.7075C101.48 81.7082 101.489 81.7114 101.505 81.7128C100.693 79.1699 99.9442 76.5289 99.48 73.8707C99.4073 73.4543 99.6042 73.0371 99.9719 72.8287C100.34 72.6202 100.799 72.6655 101.119 72.9417C101.796 73.527 102.616 73.9658 103.698 74.1526C102.613 72.6527 101.926 70.577 101.914 68.595C101.9 66.4555 102.688 64.2126 104.881 63.0475L104.882 63.0466C112.847 58.8339 117.495 48.7875 119.313 40.0079L119.316 39.9968L119.316 39.9968C119.692 38.279 119.927 36.5908 120.019 35.0018C120.043 34.5757 120.336 34.2122 120.747 34.0968C121.158 33.9815 121.597 34.1398 121.84 34.4909C122.248 35.0817 122.707 35.6556 123.195 36.2152C125.056 38.3311 127.328 40.1395 129.637 41.8476M129.043 42.6522L129.636 41.8468C129.636 41.847 129.636 41.8473 129.637 41.8476M102.497 81.5321C101.825 79.4372 101.202 77.2954 100.745 75.144C100.412 74.937 100.102 74.7061 99.8115 74.4555L100.465 73.6986L101.45 73.5266C101.507 73.8515 101.568 74.1765 101.634 74.5017C102.293 74.8508 103.053 75.0957 103.948 75.1981M102.497 81.5321L105.35 63.9306C101.844 65.7932 102.569 71.1852 104.721 73.8443C105.132 74.3513 104.6 75.27 103.948 75.1981M102.497 81.5321C102.786 82.4257 101.77 82.9345 101.069 82.6199M102.497 81.5321L101.069 82.6199M103.948 75.1981L104.036 74.4007L104.036 74.3987L104.057 74.2041C103.965 74.194 103.899 74.2232 103.874 74.2386C103.872 74.2403 103.869 74.2419 103.867 74.2432L103.948 75.1981ZM101.069 82.6199C95.5334 80.1298 92.3169 77.9291 89.9958 72.4167L101.069 82.6199ZM124.053 29.5445C123.885 29.6601 123.687 29.722 123.484 29.722H123.378C122.607 29.7454 121.869 29.77 121.161 29.8379L121.156 29.8383L119.56 29.984C119.412 29.9975 119.262 29.9777 119.123 29.9262C115.265 28.5021 111.082 28.3548 106.9 29.1953L124.053 29.5445ZM124.053 29.5445C127.357 27.2589 131.454 26.3113 135.802 25.3057C136.055 25.2473 136.308 25.1886 136.562 25.1296C141.102 24.0741 145.861 22.8687 149.611 19.7211M124.053 29.5445L149.611 19.7211M149.611 19.7211C149.646 19.6917 149.693 19.6698 149.749 19.6605C149.807 19.6508 149.86 19.6576 149.895 19.6702C149.91 19.6755 149.919 19.6805 149.924 19.6838C149.926 19.6917 149.928 19.7063 149.927 19.7301L149.611 19.7211ZM149.922 19.6762C149.922 19.6761 149.922 19.6771 149.923 19.6794C149.922 19.6774 149.922 19.6763 149.922 19.6762Z" fill="#A93800" stroke="#2F1409" stroke-width="2" stroke-linejoin="round"/>
<path d="M180.4 50.6524C177.498 42.9879 174.404 35.4186 169.158 29.036C159.026 16.6808 142.922 13.3187 127.98 14.3345C114.125 15.2784 101.238 19.5323 90.961 29.4945C87.455 32.9285 84.4327 36.7725 81.9426 40.931C82.7409 38.2719 83.8772 35.611 85.2544 33.0724C95.0962 21.2007 109.942 13.8742 125.851 12.3514C141.06 10.9256 157.745 13.6819 168.938 25.3593C173.266 29.9044 176.506 35.3449 179.141 41.1971C179.843 44.2913 180.254 47.4593 180.398 50.6506L180.4 50.6524Z" fill="#F06700"/>
<path d="M128.271 5.96866C125.055 6.06575 121.792 3.98556 119.47 1.90717C118.963 1.44691 118.383 1.01181 117.779 0.553345C118.383 0.650432 118.963 0.770892 119.544 0.939896C120.366 0.819436 121.187 0.722349 122.011 0.625261C124.163 2.05281 126.507 2.77736 128.782 4.08265C129.677 4.58966 129.242 5.92012 128.275 5.96866H128.271Z" fill="#F06700"/>
<path d="M123.363 28.7213C122.734 31.6951 122.493 34.8864 122.444 36.8695C121.937 36.2887 121.454 35.6846 121.019 35.0554C120.922 36.6987 120.681 38.4408 120.294 40.2064C120.053 38.466 120.028 36.6519 120.222 34.7174C120.391 33.2431 120.585 31.0424 121.069 28.8418C121.819 28.7699 122.592 28.7447 123.367 28.7213H123.363Z" fill="#2F1409"/>
<path d="M168.613 43.0083C162.649 43.5549 156.096 37.6775 150.772 35.1533C147.257 33.4866 144.091 32.0626 140.166 32.9436C139.318 33.1342 139.549 34.373 140.364 34.4089C149.704 34.8224 156.671 44.3316 165.511 45.4553C163.794 46.7678 161.871 47.6056 159.582 48.2241C158.273 48.5783 158.482 50.8472 159.913 50.6729C163.989 50.1766 166.912 48.3104 169.496 45.1443C170.103 44.3999 169.801 42.8987 168.611 43.0083H168.613Z" fill="#2F1409"/>
<path d="M110.17 33.5963C107.859 34.0152 106.576 35.6351 104.63 36.8308C102.117 38.3752 99.357 38.8804 96.4605 39.1177C95.5005 39.1968 95.1121 40.7556 96.2142 40.9354C102.412 41.9512 106.468 38.5586 110.932 34.907C111.599 34.3622 110.855 33.4723 110.17 33.5963Z" fill="#2F1409"/>
<path d="M107.601 46.9869C98.3056 49.8097 93.8395 61.4152 97.9568 70.1639C98.2876 70.8668 99.3304 70.4767 99.3466 69.7881C99.4526 65.4461 98.5321 61.3109 100.033 57.0535C101.411 53.1484 104.264 49.7827 108.074 48.1106C108.714 47.8302 108.257 46.7892 107.601 46.9887V46.9869Z" fill="#2F1409"/>
<path d="M96.1854 52.539C92.39 56.5771 88.4472 59.1877 87.2641 65.0148C86.8039 63.7328 86.4659 62.7907 86.4659 62.717C86.1278 62.717 85.788 62.6199 85.5471 62.4276C86.9261 57.8339 89.9718 53.8677 95.2433 51.329C96.0164 50.9425 96.7913 51.8846 96.1872 52.5372L96.1854 52.539Z" fill="#2F1409"/>
<path d="M112.468 131.65C112.419 132.183 112.365 132.72 112.311 133.252L112.311 133.255C112.257 133.794 112.203 134.327 112.155 134.853L112.035 136.161L111.21 135.851C110.121 154.342 110.587 172.887 111.055 191.484C111.124 194.235 111.194 196.986 111.258 199.739C111.759 221.242 111.955 242.8 109.419 264.287L109.419 264.29C109.172 266.314 108.792 268.386 108.416 270.434C108.381 270.626 108.345 270.817 108.31 271.008C107.957 272.94 107.618 274.849 107.394 276.723C107.459 276.734 107.524 276.746 107.589 276.758C108.261 276.877 108.953 277.001 109.64 277.141C118.521 278.932 127.447 279.032 136.483 278.887L136.491 278.887H136.499C137.395 278.887 138.271 278.866 139.178 278.844L139.425 278.838L139.43 278.838C139.99 278.828 140.552 278.816 141.113 278.805C146.907 278.69 152.742 278.574 158.599 278.863L158.6 278.863C167.827 279.321 176.819 278.545 185.904 277.761C186.463 277.713 187.021 277.665 187.581 277.617C187.426 274.626 187.27 271.581 187.315 268.556C187.315 268.555 187.315 268.555 187.315 268.554L188.315 268.569C188.376 262.455 188.654 256.341 188.93 250.243C188.975 249.251 189.02 248.259 189.064 247.267L112.468 131.65ZM112.468 131.65C112.516 131.259 112.818 130.556 113.329 129.769L113.336 129.757L113.344 129.744C113.723 129.12 114.159 128.56 114.527 128.192C114.63 128.089 114.656 128.065 114.691 128.038L114.705 128.028L114.719 128.016C115.422 127.441 116.347 127.186 117.396 127.154C118.445 127.122 119.538 127.316 120.484 127.557C127.998 129.526 133.362 130.61 141.265 129.243L141.272 129.242C144.637 128.633 147.974 127.877 151.285 127.001C152.378 126.716 153.601 126.262 154.799 125.817C155.239 125.654 155.675 125.492 156.1 125.34C157.751 124.751 159.276 124.295 160.566 124.252L160.574 124.252L160.581 124.251C161.412 124.212 162.505 124.432 163.742 124.852C164.737 125.191 165.767 125.67 166.787 126.249L166.787 126.249L166.798 126.255C168.061 126.95 169.233 127.765 170.157 128.604C170.628 129.033 171.016 129.451 171.317 129.846C170.985 129.886 170.619 129.927 170.249 129.969L170.048 129.991C169.485 130.054 168.925 130.117 168.491 130.171C168.25 130.202 168.034 130.231 167.871 130.259C167.794 130.272 167.705 130.288 167.625 130.309C167.59 130.318 167.518 130.337 167.438 130.371C167.401 130.387 167.319 130.424 167.228 130.49C167.172 130.531 166.906 130.726 166.831 131.113L166.766 131.448L166.92 131.753C178.218 154.205 184.552 179.591 187.225 204.527C188.706 218.407 188.695 232.277 188.108 246.267L112.468 131.65Z" fill="white" stroke="#E4E4E4" stroke-width="2"/>
<path d="M167.279 125.381C166.529 126.372 165.756 127.339 164.933 128.283C159.807 134.11 152.988 137.06 145.348 137.882C134.25 139.09 120.71 136.938 112.49 129.225C112.901 128.547 113.385 127.92 113.82 127.485C113.917 127.387 113.989 127.316 114.086 127.242C123.782 135.51 140.055 137.301 151.443 133.65C157.173 131.787 160.897 128.112 164.064 123.905C165.129 124.268 166.217 124.775 167.281 125.379L167.279 125.381Z" fill="#E4E4E4"/>
<path d="M118.309 203.513C118.286 217.609 117.464 231.681 116.303 245.73L118.309 203.513ZM118.309 203.513C118.324 195.441 117.846 187.426 117.368 179.408M118.309 203.513L117.368 179.408M117.368 179.408C117.083 174.625 116.798 169.841 116.617 165.043L117.368 179.408ZM115.3 278.058C114.962 278.015 114.624 277.97 114.286 277.923C114.313 278.263 114.341 278.604 114.371 278.944C114.71 278.991 115.049 279.035 115.388 279.078C115.356 278.738 115.327 278.398 115.3 278.058ZM80.0925 220.367C80.0972 220.346 80.1017 220.325 80.106 220.304C80.1078 220.285 80.1096 220.267 80.1115 220.249L79.2118 220.159L79.1884 220.156V220.165L79.2118 220.17L80.0925 220.367ZM77.848 273.805C77.2737 262.404 77.6153 250.152 78.5656 237.44L109.632 277.138L109.632 277.137C98.9625 274.987 88.4945 274.12 77.848 273.805Z" fill="#F8FF00"/>
<path d="M118.309 203.513C118.286 217.609 117.464 231.681 116.303 245.73L118.309 203.513ZM118.309 203.513C118.324 195.441 117.846 187.426 117.368 179.408M118.309 203.513L117.368 179.408M117.368 179.408C117.083 174.625 116.798 169.841 116.617 165.043L117.368 179.408ZM115.3 278.058C114.962 278.015 114.624 277.97 114.286 277.923C114.313 278.263 114.341 278.604 114.371 278.944C114.71 278.991 115.049 279.035 115.388 279.078C115.356 278.738 115.327 278.398 115.3 278.058ZM80.0925 220.367C80.0972 220.346 80.1017 220.325 80.106 220.304C80.1078 220.285 80.1096 220.267 80.1115 220.249L79.2118 220.159L79.1884 220.156V220.165L79.2118 220.17L80.0925 220.367ZM77.848 273.805C77.2737 262.404 77.6153 250.152 78.5656 237.44L109.632 277.138L109.632 277.137C98.9625 274.987 88.4945 274.12 77.848 273.805Z" fill="url(#paint1_linear_1_5214)"/>
<path d="M118.309 203.513C118.286 217.609 117.464 231.681 116.303 245.73L118.309 203.513ZM118.309 203.513C118.324 195.441 117.846 187.426 117.368 179.408M118.309 203.513L117.368 179.408M117.368 179.408C117.083 174.625 116.798 169.841 116.617 165.043L117.368 179.408ZM115.3 278.058C114.962 278.015 114.624 277.97 114.286 277.923C114.313 278.263 114.341 278.604 114.371 278.944C114.71 278.991 115.049 279.035 115.388 279.078C115.356 278.738 115.327 278.398 115.3 278.058ZM80.0925 220.367C80.0972 220.346 80.1017 220.325 80.106 220.304C80.1078 220.285 80.1096 220.267 80.1115 220.249L79.2118 220.159L79.1884 220.156V220.165L79.2118 220.17L80.0925 220.367ZM77.848 273.805C77.2737 262.404 77.6153 250.152 78.5656 237.44L109.632 277.138L109.632 277.137C98.9625 274.987 88.4945 274.12 77.848 273.805Z" stroke="#457B00" stroke-width="2"/>
<path d="M166.699 160.618L166.694 160.395L166.692 160.391C166.587 156.715 166.251 153.059 165.89 149.431C165.837 148.902 165.784 148.375 165.73 147.847C165.41 144.673 165.093 141.522 164.907 138.361L164.907 138.357C164.668 134.545 164.622 130.734 165.001 126.963L165.001 126.962C165.041 126.558 165.075 126.182 165.107 125.827C165.171 125.124 165.226 124.509 165.305 123.942C165.423 123.097 165.578 122.512 165.808 122.092C166.017 121.712 166.304 121.438 166.794 121.245C167.324 121.037 168.121 120.913 169.346 120.948L169.346 120.948L169.357 120.948C170.625 120.971 171.898 121.065 173.154 121.208L173.154 121.208L173.162 121.209C174.05 121.303 174.943 121.442 175.862 121.588C180.112 122.302 184.282 123.515 188.38 124.977C192.738 126.538 195.854 128.771 197.503 133.048C199.681 138.755 200.365 145.428 201.021 151.829C201.17 153.284 201.317 154.726 201.481 156.138L201.481 156.141C201.777 158.639 200.907 161.213 199.911 164.063C199.891 164.121 199.871 164.178 199.851 164.236C198.906 166.939 197.87 169.901 198.167 172.879L198.172 172.922L198.18 172.964C198.579 175.1 198.982 177.247 199.386 179.401C205.596 212.504 212.149 247.429 211.791 276.533C210.327 276.553 208.89 276.567 207.503 276.566C200.078 276.555 192.749 277.175 185.478 277.79C181.957 278.087 178.45 278.384 174.953 278.607C175.014 270.822 174.105 263.095 173.198 255.38C172.81 252.083 172.422 248.788 172.111 245.492C171.45 238.317 171.287 231.038 171.182 223.746C171.168 222.814 171.156 221.882 171.143 220.95C171.057 214.599 170.971 208.247 170.59 202.002L170.59 202.001C170.215 195.884 169.48 189.758 168.748 183.663C168.651 182.856 168.554 182.05 168.458 181.245C167.636 174.339 166.88 167.47 166.699 160.618ZM200.829 164.468C201.817 161.641 202.804 158.817 202.474 156.023L212.776 277.519C213.296 248.117 206.649 212.687 200.375 179.251C199.969 177.085 199.564 174.927 199.163 172.78C198.887 170.024 199.859 167.245 200.829 164.468Z" fill="#F8FF00"/>
<path d="M166.699 160.618L166.694 160.395L166.692 160.391C166.587 156.715 166.251 153.059 165.89 149.431C165.837 148.902 165.784 148.375 165.73 147.847C165.41 144.673 165.093 141.522 164.907 138.361L164.907 138.357C164.668 134.545 164.622 130.734 165.001 126.963L165.001 126.962C165.041 126.558 165.075 126.182 165.107 125.827C165.171 125.124 165.226 124.509 165.305 123.942C165.423 123.097 165.578 122.512 165.808 122.092C166.017 121.712 166.304 121.438 166.794 121.245C167.324 121.037 168.121 120.913 169.346 120.948L169.346 120.948L169.357 120.948C170.625 120.971 171.898 121.065 173.154 121.208L173.154 121.208L173.162 121.209C174.05 121.303 174.943 121.442 175.862 121.588C180.112 122.302 184.282 123.515 188.38 124.977C192.738 126.538 195.854 128.771 197.503 133.048C199.681 138.755 200.365 145.428 201.021 151.829C201.17 153.284 201.317 154.726 201.481 156.138L201.481 156.141C201.777 158.639 200.907 161.213 199.911 164.063C199.891 164.121 199.871 164.178 199.851 164.236C198.906 166.939 197.87 169.901 198.167 172.879L198.172 172.922L198.18 172.964C198.579 175.1 198.982 177.247 199.386 179.401C205.596 212.504 212.149 247.429 211.791 276.533C210.327 276.553 208.89 276.567 207.503 276.566C200.078 276.555 192.749 277.175 185.478 277.79C181.957 278.087 178.45 278.384 174.953 278.607C175.014 270.822 174.105 263.095 173.198 255.38C172.81 252.083 172.422 248.788 172.111 245.492C171.45 238.317 171.287 231.038 171.182 223.746C171.168 222.814 171.156 221.882 171.143 220.95C171.057 214.599 170.971 208.247 170.59 202.002L170.59 202.001C170.215 195.884 169.48 189.758 168.748 183.663C168.651 182.856 168.554 182.05 168.458 181.245C167.636 174.339 166.88 167.47 166.699 160.618ZM200.829 164.468C201.817 161.641 202.804 158.817 202.474 156.023L212.776 277.519C213.296 248.117 206.649 212.687 200.375 179.251C199.969 177.085 199.564 174.927 199.163 172.78C198.887 170.024 199.859 167.245 200.829 164.468Z" fill="url(#paint2_linear_1_5214)"/>
<path d="M166.699 160.618L166.694 160.395L166.692 160.391C166.587 156.715 166.251 153.059 165.89 149.431C165.837 148.902 165.784 148.375 165.73 147.847C165.41 144.673 165.093 141.522 164.907 138.361L164.907 138.357C164.668 134.545 164.622 130.734 165.001 126.963L165.001 126.962C165.041 126.558 165.075 126.182 165.107 125.827C165.171 125.124 165.226 124.509 165.305 123.942C165.423 123.097 165.578 122.512 165.808 122.092C166.017 121.712 166.304 121.438 166.794 121.245C167.324 121.037 168.121 120.913 169.346 120.948L169.346 120.948L169.357 120.948C170.625 120.971 171.898 121.065 173.154 121.208L173.154 121.208L173.162 121.209C174.05 121.303 174.943 121.442 175.862 121.588C180.112 122.302 184.282 123.515 188.38 124.977C192.738 126.538 195.854 128.771 197.503 133.048C199.681 138.755 200.365 145.428 201.021 151.829C201.17 153.284 201.317 154.726 201.481 156.138L201.481 156.141C201.777 158.639 200.907 161.213 199.911 164.063C199.891 164.121 199.871 164.178 199.851 164.236C198.906 166.939 197.87 169.901 198.167 172.879L198.172 172.922L198.18 172.964C198.579 175.1 198.982 177.247 199.386 179.401C205.596 212.504 212.149 247.429 211.791 276.533C210.327 276.553 208.89 276.567 207.503 276.566C200.078 276.555 192.749 277.175 185.478 277.79C181.957 278.087 178.45 278.384 174.953 278.607C175.014 270.822 174.105 263.095 173.198 255.38C172.81 252.083 172.422 248.788 172.111 245.492C171.45 238.317 171.287 231.038 171.182 223.746C171.168 222.814 171.156 221.882 171.143 220.95C171.057 214.599 170.971 208.247 170.59 202.002L170.59 202.001C170.215 195.884 169.48 189.758 168.748 183.663C168.651 182.856 168.554 182.05 168.458 181.245C167.636 174.339 166.88 167.47 166.699 160.618ZM200.829 164.468C201.817 161.641 202.804 158.817 202.474 156.023L212.776 277.519C213.296 248.117 206.649 212.687 200.375 179.251C199.969 177.085 199.564 174.927 199.163 172.78C198.887 170.024 199.859 167.245 200.829 164.468Z" stroke="#457B00" stroke-width="2"/>
<path d="M171.479 157.694C170.657 158.249 169.713 157.259 170.294 156.46C172.518 153.39 175.637 151.309 177.959 148.336C182.36 142.726 180.062 138.591 177.982 132.981C176.411 128.726 174.791 124.495 173.268 120.214C174.187 120.312 175.105 120.455 176.024 120.601C176.822 122.656 177.595 124.736 178.394 126.791C180.085 131.241 182.77 136.245 183.591 140.912C184.848 148.021 176.677 154.114 171.477 157.692L171.479 157.694Z" fill="#457B00"/>
<path d="M98.0679 140.488L98.0678 140.488L98.0715 140.499C101.475 150.065 103.913 161.677 103.913 171.814C103.913 179.757 101.163 187.305 97.5417 194.451C97.3028 194.921 97.0631 195.394 96.822 195.87C95.641 198.202 94.426 200.6 93.1105 202.951L92.9831 203.179V203.2C90.5651 207.468 87.88 211.531 84.5651 214.684L84.5639 214.685C83.0691 216.111 81.3873 217.264 79.6045 218.168L79.5903 218.175L79.5764 218.183C79.3892 218.285 79.1941 218.384 79.0018 218.471H78.9707L78.7743 218.56C74.6799 220.411 70.0138 221.005 65.34 220.746C62.0182 220.546 59.5825 219.878 57.6443 218.565C55.7081 217.255 54.1584 215.227 52.7526 212.099C49.7582 205.407 49.4799 197.844 49.7452 190.421L49.7452 190.42C50.0364 182.25 50.4702 173.984 52.1425 166.049L52.1433 166.046C52.185 165.844 52.2267 165.642 52.2685 165.439C53.2312 160.771 54.2408 155.875 56.7177 152.048L56.7194 152.046C57.7024 150.516 59.507 148.865 61.5791 147.745C63.6662 146.616 65.8398 146.123 67.6005 146.616L67.6012 146.616C67.6604 146.632 67.8773 146.755 68.2514 147.191C68.5941 147.59 68.9551 148.113 69.3396 148.693C69.4158 148.808 69.4933 148.925 69.5715 149.044C69.8731 149.502 70.1864 149.978 70.4857 150.384C70.8368 150.86 71.2897 151.416 71.8133 151.703L72.8357 152.265L73.2346 151.169C74.8838 146.636 76.5989 142.221 79.524 138.646C79.9474 138.133 81.0082 137.197 82.4868 136.121C83.9424 135.061 85.73 133.917 87.5505 132.977C89.7678 131.845 91.9081 131.082 93.5188 131.048C94.17 131.034 94.6718 131.141 95.0487 131.338C94.2809 131.173 93.4636 131.216 92.6764 131.373L92.9053 133.353C93.5741 133.331 94.0636 133.418 94.3027 133.566L94.3057 133.568C95.2579 134.154 95.9876 135.191 96.5966 136.492C97.0751 137.514 97.4362 138.599 97.7824 139.639C97.878 139.927 97.9724 140.21 98.0679 140.488ZM80.0565 219.06C81.9191 218.116 83.6829 216.908 85.2543 215.408L79.2097 219.471C79.4991 219.351 79.7904 219.205 80.0565 219.06Z" fill="#F8FF00"/>
<path d="M98.0679 140.488L98.0678 140.488L98.0715 140.499C101.475 150.065 103.913 161.677 103.913 171.814C103.913 179.757 101.163 187.305 97.5417 194.451C97.3028 194.921 97.0631 195.394 96.822 195.87C95.641 198.202 94.426 200.6 93.1105 202.951L92.9831 203.179V203.2C90.5651 207.468 87.88 211.531 84.5651 214.684L84.5639 214.685C83.0691 216.111 81.3873 217.264 79.6045 218.168L79.5903 218.175L79.5764 218.183C79.3892 218.285 79.1941 218.384 79.0018 218.471H78.9707L78.7743 218.56C74.6799 220.411 70.0138 221.005 65.34 220.746C62.0182 220.546 59.5825 219.878 57.6443 218.565C55.7081 217.255 54.1584 215.227 52.7526 212.099C49.7582 205.407 49.4799 197.844 49.7452 190.421L49.7452 190.42C50.0364 182.25 50.4702 173.984 52.1425 166.049L52.1433 166.046C52.185 165.844 52.2267 165.642 52.2685 165.439C53.2312 160.771 54.2408 155.875 56.7177 152.048L56.7194 152.046C57.7024 150.516 59.507 148.865 61.5791 147.745C63.6662 146.616 65.8398 146.123 67.6005 146.616L67.6012 146.616C67.6604 146.632 67.8773 146.755 68.2514 147.191C68.5941 147.59 68.9551 148.113 69.3396 148.693C69.4158 148.808 69.4933 148.925 69.5715 149.044C69.8731 149.502 70.1864 149.978 70.4857 150.384C70.8368 150.86 71.2897 151.416 71.8133 151.703L72.8357 152.265L73.2346 151.169C74.8838 146.636 76.5989 142.221 79.524 138.646C79.9474 138.133 81.0082 137.197 82.4868 136.121C83.9424 135.061 85.73 133.917 87.5505 132.977C89.7678 131.845 91.9081 131.082 93.5188 131.048C94.17 131.034 94.6718 131.141 95.0487 131.338C94.2809 131.173 93.4636 131.216 92.6764 131.373L92.9053 133.353C93.5741 133.331 94.0636 133.418 94.3027 133.566L94.3057 133.568C95.2579 134.154 95.9876 135.191 96.5966 136.492C97.0751 137.514 97.4362 138.599 97.7824 139.639C97.878 139.927 97.9724 140.21 98.0679 140.488ZM80.0565 219.06C81.9191 218.116 83.6829 216.908 85.2543 215.408L79.2097 219.471C79.4991 219.351 79.7904 219.205 80.0565 219.06Z" fill="url(#paint3_linear_1_5214)"/>
<path d="M98.0679 140.488L98.0678 140.488L98.0715 140.499C101.475 150.065 103.913 161.677 103.913 171.814C103.913 179.757 101.163 187.305 97.5417 194.451C97.3028 194.921 97.0631 195.394 96.822 195.87C95.641 198.202 94.426 200.6 93.1105 202.951L92.9831 203.179V203.2C90.5651 207.468 87.88 211.531 84.5651 214.684L84.5639 214.685C83.0691 216.111 81.3873 217.264 79.6045 218.168L79.5903 218.175L79.5764 218.183C79.3892 218.285 79.1941 218.384 79.0018 218.471H78.9707L78.7743 218.56C74.6799 220.411 70.0138 221.005 65.34 220.746C62.0182 220.546 59.5825 219.878 57.6443 218.565C55.7081 217.255 54.1584 215.227 52.7526 212.099C49.7582 205.407 49.4799 197.844 49.7452 190.421L49.7452 190.42C50.0364 182.25 50.4702 173.984 52.1425 166.049L52.1433 166.046C52.185 165.844 52.2267 165.642 52.2685 165.439C53.2312 160.771 54.2408 155.875 56.7177 152.048L56.7194 152.046C57.7024 150.516 59.507 148.865 61.5791 147.745C63.6662 146.616 65.8398 146.123 67.6005 146.616L67.6012 146.616C67.6604 146.632 67.8773 146.755 68.2514 147.191C68.5941 147.59 68.9551 148.113 69.3396 148.693C69.4158 148.808 69.4933 148.925 69.5715 149.044C69.8731 149.502 70.1864 149.978 70.4857 150.384C70.8368 150.86 71.2897 151.416 71.8133 151.703L72.8357 152.265L73.2346 151.169C74.8838 146.636 76.5989 142.221 79.524 138.646C79.9474 138.133 81.0082 137.197 82.4868 136.121C83.9424 135.061 85.73 133.917 87.5505 132.977C89.7678 131.845 91.9081 131.082 93.5188 131.048C94.17 131.034 94.6718 131.141 95.0487 131.338C94.2809 131.173 93.4636 131.216 92.6764 131.373L92.9053 133.353C93.5741 133.331 94.0636 133.418 94.3027 133.566L94.3057 133.568C95.2579 134.154 95.9876 135.191 96.5966 136.492C97.0751 137.514 97.4362 138.599 97.7824 139.639C97.878 139.927 97.9724 140.21 98.0679 140.488ZM80.0565 219.06C81.9191 218.116 83.6829 216.908 85.2543 215.408L79.2097 219.471C79.4991 219.351 79.7904 219.205 80.0565 219.06Z" stroke="#457B00" stroke-width="2"/>
<path d="M116.615 165.043C112.723 162.093 108.733 159.264 104.767 156.291C101.261 153.632 99.6413 152.35 100.44 147.948C101.793 140.381 104.404 132.837 107.185 125.679C107.306 125.39 107.403 125.075 107.5 124.735C108.225 124.615 108.951 124.518 109.675 124.469C108.854 126.645 108.25 129.354 107.887 130.465C107.209 132.569 106.581 134.696 105.977 136.825C104.503 142.048 101.481 149.034 105.565 153.387C108.685 156.675 112.82 158.707 116.518 161.221C116.518 161.97 116.518 162.72 116.542 163.493C116.565 164 116.59 164.532 116.614 165.041L116.615 165.043Z" fill="#457B00"/>
<path d="M93.7193 192.438C93.4046 184.748 93.0415 177.035 92.245 169.371C92.5111 166.711 92.7052 164.051 92.4392 161.366C91.7865 155.03 88.063 149.229 81.3406 148.817C80.7114 148.768 80.6161 149.736 81.195 149.881C92.1731 152.903 90.0443 165.476 89.3198 174.06C88.6671 181.893 89.2479 189.8 88.57 197.634C87.8689 205.733 85.0641 212.891 80.0587 219.056C79.7441 219.419 79.4546 219.781 79.1166 220.144C78.5359 225.922 78.0037 231.677 77.5686 237.359C84.2658 231.338 89.7549 224.011 92.3421 215.284C93.5035 211.415 93.9134 207.45 93.9854 203.461V203.437C94.0824 199.786 93.8883 196.088 93.7193 192.436V192.438Z" fill="#457B00"/>
<path d="M77.7356 145.983C77.5846 146.005 77.4624 146.059 77.3455 146.12C73.6867 145.063 69.5911 144.119 66.0384 145.158C65.9881 145.173 65.9575 145.203 65.9108 145.221C65.722 144.977 65.4145 144.811 65.0657 144.881C52.4731 147.397 61.905 167.974 73.0197 166.26C78.6724 165.388 85.2347 161.305 86.3297 155.342C87.3221 149.944 83.1977 145.217 77.7338 145.987L77.7356 145.983Z" fill="#457B00"/>
<g clip-path="url(#clip2_1_5214)">
<path d="M197.078 179.813L197.327 180.781L197.337 180.779L198.256 184.358L173.477 169.707L198.667 163.236L196.841 174.296C196.841 174.297 196.841 174.297 196.841 174.298C196.533 176.13 196.615 178.009 197.078 179.813Z" fill="#FFED30"/>
<path d="M197.078 179.813L197.327 180.781L197.337 180.779L198.256 184.358L173.477 169.707L198.667 163.236L196.841 174.296C196.841 174.297 196.841 174.297 196.841 174.298C196.533 176.13 196.615 178.009 197.078 179.813Z" fill="url(#paint4_linear_1_5214)"/>
<path d="M197.078 179.813L197.327 180.781L197.337 180.779L198.256 184.358L173.477 169.707L198.667 163.236L196.841 174.296C196.841 174.297 196.841 174.297 196.841 174.298C196.533 176.13 196.615 178.009 197.078 179.813Z" stroke="#F06700" stroke-width="2"/>
<path d="M148.74 252.354L150.568 241.301L150.568 241.3C150.649 240.808 150.697 240.327 150.721 239.844C150.805 238.48 150.669 237.107 150.331 235.788L139.731 194.523C139.388 193.187 138.841 191.899 138.094 190.725C137.849 190.321 137.577 189.94 137.292 189.582L130.362 180.771L141.103 178.012L148.58 187.518L148.58 187.519C149.563 188.766 150.272 190.201 150.664 191.725L160.663 230.651L160.65 230.644L161.251 232.983C161.642 234.507 161.712 236.105 161.453 237.672L161.452 237.672L159.48 249.595L148.74 252.354Z" fill="#61B6F2" stroke="#37A4EF" stroke-width="2"/>
<path d="M204.195 238.12L161.61 249.059L163.438 238.007C163.438 238.006 163.438 238.006 163.438 238.006C163.743 236.166 163.662 234.287 163.201 232.492L152.601 191.227C152.14 189.433 151.306 187.747 150.151 186.281L143.22 177.468L170.724 170.403L183.885 178.192C183.687 179.838 183.808 181.51 184.218 183.105L194.816 224.361C194.816 224.364 194.817 224.367 194.818 224.371C195.281 226.167 196.103 227.853 197.258 229.319L197.258 229.319L204.195 238.12Z" fill="#37A4EF" stroke="#168CE1" stroke-width="2"/>
<path d="M210.913 225.405C209.844 224.048 209.073 222.488 208.644 220.819L199.816 186.45L184.979 177.678L184.97 177.765C184.685 179.459 184.77 181.195 185.199 182.864L195.799 224.129C196.225 225.789 196.989 227.361 198.058 228.718L205.946 238.724L218.793 235.424L210.916 225.415L210.913 225.405Z" fill="#168CE1"/>
<path d="M129.35 178.977L128.345 175.061L197.68 157.251L198.686 161.166L129.35 178.977Z" fill="#1379DA" stroke="#0070DA" stroke-width="2"/>
<path d="M149.741 258.357L148.735 254.442L218.071 236.631L219.077 240.547L149.741 258.357Z" fill="#1379DA" stroke="#0070DA" stroke-width="2"/>
<path d="M170.09 183.761C178.624 182.979 186.176 189.263 186.958 197.797C187.74 206.331 181.456 213.883 172.922 214.665C164.389 215.447 156.836 209.163 156.054 200.63C155.272 192.096 161.556 184.544 170.09 183.761Z" fill="#F8FF00" stroke="#F06700" stroke-width="2"/>
<path d="M182.95 196.269C184.574 202.593 180.764 209.037 174.44 210.662C168.115 212.287 161.671 208.477 160.046 202.152C158.422 195.827 162.232 189.383 168.556 187.759C174.881 186.134 181.325 189.944 182.95 196.269Z" fill="#FEFFCC" stroke="#F06700" stroke-width="2"/>
<path d="M163.945 217.084L164.858 216.804L164.621 215.879L163.528 211.627C163.444 211.298 163.672 210.726 164.389 210.542L192.652 203.282L194.248 209.493L164.017 217.258C163.91 217.286 163.816 217.268 163.759 217.24C163.752 217.237 163.747 217.234 163.742 217.231C163.744 217.227 163.747 217.223 163.75 217.219C163.779 217.174 163.842 217.116 163.945 217.084ZM163.719 217.212C163.719 217.212 163.719 217.213 163.721 217.215C163.719 217.213 163.719 217.212 163.719 217.212ZM163.733 217.253C163.733 217.255 163.733 217.256 163.733 217.256C163.733 217.256 163.733 217.255 163.733 217.253Z" fill="#E92B40" stroke="#D32144" stroke-width="2"/>
<path d="M164.933 206.743L166.319 212.139C166.229 212.152 166.139 212.169 166.052 212.192L145.628 217.438L144.04 211.257L163.649 206.22C164.383 206.032 164.853 206.431 164.933 206.743Z" fill="#FF3D46" stroke="#D32144" stroke-width="2"/>
<path d="M166.301 213.16L161.939 214.281L162.76 217.48C162.61 216.894 163.041 216.264 163.717 216.091L166.837 215.289C167.513 215.116 167.946 214.496 167.793 213.9C167.64 213.303 166.964 212.979 166.288 213.153L166.301 213.16Z" fill="#D32144"/>
<path d="M195.661 201.943C195.601 201.916 195.539 201.921 195.481 201.904C192.178 200.963 190.399 205.498 188.444 211.412C185.623 213.09 182.473 216.907 178.872 220.661C173.113 226.652 168.24 230.276 171.225 234.022C171.398 234.242 171.581 234.46 171.816 234.675C175.962 238.651 187.787 241.429 193.879 235.087C195.409 233.497 196.429 231.488 197.042 229.297C199.424 227.604 201.489 225.21 202.544 222.1C205.384 213.776 200.047 203.432 195.671 201.94L195.661 201.943Z" fill="#168CE1"/>
<path d="M193.877 199.7C193.817 199.673 193.755 199.679 193.698 199.662C197.565 202.841 201.244 211.556 198.782 218.755C196.033 226.812 186.643 230.008 182.077 228.851C182.438 229.266 182.918 229.609 183.591 229.839C187.968 231.331 197.92 228.181 200.76 219.857C203.6 211.533 198.263 201.19 193.887 199.698L193.877 199.7Z" fill="#FFE21F"/>
<path d="M197.826 218.435L197.73 218.718L197.731 218.721C196.415 222.297 193.66 224.841 190.648 226.376C187.702 227.879 184.653 228.344 182.658 227.969C182.47 227.646 182.36 227.215 182.351 226.622C182.34 225.851 182.504 224.886 182.823 223.703C183.242 222.148 183.88 220.367 184.613 218.323C185.009 217.221 185.432 216.042 185.862 214.781L185.862 214.781C186.283 213.544 186.676 212.334 187.053 211.171C187.952 208.399 188.763 205.899 189.668 203.956C190.307 202.582 190.936 201.622 191.574 201.074C192.1 200.623 192.611 200.459 193.222 200.58C194.911 202.05 196.628 204.761 197.649 208.001C198.699 211.334 198.968 215.086 197.826 218.435Z" fill="#FFC51E" stroke="#FFE21F" stroke-width="2"/>
<path d="M192.087 209.47C191.651 209.053 191.209 208.774 190.755 208.573C194.299 213.382 195.589 225.084 189.924 230.987C184.474 236.656 174.451 235.036 169.432 231.781C169.605 232.002 169.788 232.22 170.023 232.434C174.169 236.411 185.993 239.189 192.086 232.847C198.178 226.505 196.235 213.457 192.097 209.468L192.087 209.47Z" fill="#FFEF81"/>
<path d="M190.115 209.399C191.642 211.623 192.742 215.399 192.797 219.383C192.853 223.502 191.79 227.602 189.203 230.294C186.736 232.86 183.182 233.829 179.544 233.731C175.973 233.634 172.464 232.509 170.117 231.033C169.6 230.335 169.466 229.711 169.549 229.087C169.643 228.372 170.039 227.544 170.781 226.536C171.518 225.537 172.53 224.448 173.747 223.21C174.191 222.759 174.665 222.285 175.159 221.791C175.997 220.952 176.893 220.056 177.799 219.113M190.115 209.399L177.799 219.113C177.799 219.113 177.799 219.113 177.799 219.113M190.115 209.399C189.52 209.207 188.879 209.25 188.13 209.541C187.252 209.881 186.275 210.546 185.18 211.498C183.687 212.795 182.121 214.485 180.405 216.337C179.575 217.233 178.709 218.167 177.799 219.113M190.115 209.399L177.799 219.113" fill="#FFE21F" stroke="#FFEF81" stroke-width="2"/>
<path d="M188.536 221.419C189.211 221.246 189.618 220.558 189.444 219.883C189.271 219.208 188.583 218.801 187.908 218.975C187.233 219.148 186.827 219.836 187 220.511C187.173 221.186 187.861 221.593 188.536 221.419Z" fill="#FFC51E"/>
<path d="M176.836 226.67C177.758 226.433 178.313 225.494 178.076 224.572C177.839 223.65 176.9 223.095 175.978 223.332C175.056 223.568 174.501 224.508 174.738 225.43C174.974 226.352 175.914 226.907 176.836 226.67Z" fill="#FFC51E"/>
<path d="M186.017 214.747C186.186 215.403 185.794 216.065 185.139 216.233C184.483 216.402 183.821 216.011 183.652 215.355C183.484 214.699 183.875 214.037 184.531 213.869C185.187 213.7 185.849 214.091 186.017 214.747Z" fill="#FFC51E"/>
<path d="M181.014 230.649C181.182 231.305 180.791 231.967 180.135 232.135C179.48 232.304 178.818 231.912 178.649 231.257C178.481 230.601 178.872 229.939 179.528 229.77C180.184 229.602 180.846 229.993 181.014 230.649Z" fill="#FFC51E"/>
<path d="M187.744 226.378C188.038 227.521 187.351 228.682 186.209 228.976C185.066 229.269 183.904 228.583 183.611 227.44C183.317 226.297 184.004 225.136 185.147 224.842C186.289 224.549 187.451 225.236 187.744 226.378Z" fill="#FFC51E"/>
</g>
<path d="M73.4617 112.202C74.2411 112.821 74.9417 113.724 75.2166 114.578V114.587L75.2434 114.665C75.3821 115.072 75.4081 115.456 75.3206 115.776L75.2093 116.183L75.592 116.361C76.1238 116.609 76.6221 117.036 77.0182 117.612C77.3829 118.143 77.6375 118.766 77.8029 119.536C77.8997 120.049 77.8765 120.618 77.8013 121.224C77.7639 121.526 77.7146 121.829 77.6638 122.135C77.6584 122.168 77.6529 122.2 77.6474 122.233C77.6024 122.503 77.5569 122.776 77.5209 123.04C77.2897 124.669 77.4625 126.196 77.7792 127.686C77.9374 128.43 78.1326 129.171 78.3325 129.909C78.3644 130.027 78.3964 130.145 78.4284 130.263C78.5978 130.887 78.7673 131.511 78.9218 132.149L78.9219 132.15C79.1265 132.992 79.4318 133.665 79.7479 134.26C79.8843 134.517 80.0132 134.744 80.136 134.96C80.3122 135.27 80.476 135.558 80.6319 135.883C81.1128 136.882 81.4027 138.019 80.8962 140.086L80.8962 140.086C80.3892 142.157 78.714 144.936 76.4835 147.268C74.2471 149.607 71.5548 151.39 69.0735 151.622L69.0722 151.622C67.7341 151.751 66.8993 151.492 66.3593 151.051C65.8122 150.605 65.4794 149.901 65.2992 148.955C65.1189 148.009 65.103 146.886 65.1369 145.673C65.149 145.241 65.1676 144.794 65.1864 144.343C65.2189 143.563 65.2519 142.769 65.2529 142.014L65.2573 142.003C65.261 141.993 65.2666 141.978 65.2722 141.963C65.2833 141.931 65.2992 141.882 65.3091 141.823L65.3499 141.577L65.179 141.397C62.9331 139.024 60.8241 136.52 58.7303 133.991L58.7297 133.99C58.3921 133.584 58.0193 133.174 57.6472 132.764C57.5971 132.709 57.547 132.654 57.497 132.598C57.0721 132.13 56.6508 131.66 56.2639 131.174C55.4867 130.198 54.8829 129.203 54.6838 128.125C54.3318 126.197 55.0387 123.929 56.1961 121.699C57.3449 119.486 58.891 117.396 60.099 115.852C60.1781 115.753 60.2658 115.64 60.3613 115.518C60.8254 114.923 61.4752 114.091 62.2344 113.289C63.1608 112.311 64.1863 111.449 65.1566 111.115L65.1567 111.115L65.1685 111.11C65.6879 110.917 66.1899 110.911 66.6613 111.118L67.0133 111.272L67.2529 110.972C67.7915 110.296 68.4845 109.937 69.4187 110.158L69.4655 110.169L69.5136 110.171C69.564 110.173 69.6206 110.189 69.7618 110.236L69.7618 110.236L69.7705 110.239C70.2393 110.388 70.4744 110.621 70.6072 110.878L70.641 110.943L70.692 110.995C70.7266 111.031 70.7643 111.094 70.799 111.214L70.9488 111.733L71.4545 111.544C71.5816 111.496 71.739 111.471 71.9509 111.495L71.9589 111.496L71.9668 111.496C72.3755 111.53 72.882 111.765 73.4617 112.202Z" fill="#FFAB91" stroke="#E67857"/>
<path d="M69.5355 109.673C68.9422 110.372 68.3345 111.05 67.7933 111.78C65.287 115.095 63.277 118.754 60.8624 122.105C60.4758 122.632 59.4941 122.199 59.6937 121.541C60.6682 118.269 62.5524 114.241 64.9958 110.644C65.6178 110.412 66.2561 110.396 66.8638 110.662C67.4931 109.872 68.3704 109.398 69.5355 109.673Z" fill="#E67857"/>
<path d="M73.7676 111.809C73.3344 112.269 72.9766 112.742 72.6116 113.252C70.4217 116.318 68.8773 119.657 67.1082 122.956C66.7234 123.675 65.5512 123.342 65.7256 122.506C66.4555 118.88 68.3793 114.338 71.051 110.649C71.1643 110.766 71.2326 110.915 71.2793 111.077C71.4861 111 71.7234 110.967 72.0075 111C72.5577 111.045 73.1582 111.348 73.7676 111.809Z" fill="#E67857"/>
<path d="M75.8028 115.908C76.4249 116.197 76.9895 116.688 77.4299 117.328C77.1459 117.719 76.8834 118.094 76.6425 118.456C75.2725 120.536 74.1218 123.407 72.1872 124.996C71.8708 125.246 71.4573 124.977 71.4231 124.642C71.0545 122.163 72.8758 119.414 74.0678 117.361C74.5982 116.476 75.1286 115.493 75.7165 114.504C75.8783 114.978 75.9233 115.468 75.8028 115.908Z" fill="#E67857"/>
<path d="M80.4322 148.21L80.4322 148.209C80.2594 146.038 80.1231 144.12 80.03 142.744C79.9834 142.057 79.9476 141.505 79.9235 141.124C79.9193 141.059 79.9155 140.999 79.9121 140.944L64.4482 138.785C64.3775 139.048 64.2735 139.436 64.1344 139.96C63.8427 141.057 63.3966 142.75 62.7793 145.127L80.4322 148.21ZM80.4322 148.21C80.6707 151.2 79.003 154.135 76.5152 156.021C74.028 157.906 70.8287 158.664 68.0788 157.457L68.0788 157.457M80.4322 148.21L68.0788 157.457M68.0788 157.457C66.0723 156.576 64.4438 154.657 63.4665 152.343M68.0788 157.457L63.4665 152.343M63.4665 152.343C62.4904 150.031 62.1929 147.39 62.7792 145.128L63.4665 152.343ZM80.9307 148.17C80.5855 143.831 80.3859 140.505 80.3859 140.505L67.8778 157.914C73.8019 160.516 81.4413 154.574 80.9307 148.17Z" fill="#FFAB91" stroke="#E67857"/>
<path d="M208.116 143.333C210.238 148.396 213.507 152.528 216.678 156.536C217.058 157.015 217.436 157.493 217.81 157.97C221.343 162.474 224.602 166.985 226.188 172.824C227.814 178.813 228.509 185.001 229.211 191.25C229.253 191.624 229.296 191.998 229.338 192.372L229.338 192.372C229.483 193.657 229.675 194.972 229.866 196.284C229.932 196.738 229.998 197.191 230.062 197.643L230.061 197.643C230.693 202.088 231.142 206.435 229.935 210.424L229.935 210.424C228.233 216.054 223.351 219.731 217.384 221.831C211.425 223.927 204.565 224.377 199.278 223.676L199.025 223.642L198.787 223.734C194.882 225.237 191.328 225.832 188.404 223.834L188.403 223.834C187.001 222.877 185.894 221.306 184.902 219.477C184.411 218.571 183.962 217.63 183.522 216.7L183.445 216.537C183.036 215.671 182.629 214.81 182.213 214.038C181.706 213.095 181.122 212.128 180.532 211.162C180.463 211.049 180.394 210.935 180.324 210.822C179.799 209.962 179.273 209.102 178.777 208.23C177.648 206.248 176.728 204.302 176.384 202.403L176.384 202.403C175.765 198.998 177.435 195.98 179.939 192.906C180.796 191.855 181.712 190.84 182.637 189.817C183.063 189.345 183.49 188.871 183.915 188.391C185.236 186.897 186.508 185.358 187.419 183.762L187.419 183.762C190.542 178.29 190.606 171.766 189.702 165.392C189.248 162.194 188.544 158.992 187.831 155.935C187.679 155.283 187.526 154.638 187.376 154.002C186.818 151.639 186.287 149.389 185.888 147.284L185.888 147.284C185.068 142.962 184.617 139.674 185.129 136.691C185.631 133.767 187.08 131.038 190.293 127.92L191.278 126.963L190.065 126.319C190.065 126.319 190.064 126.318 190.063 126.318L190.056 126.314C190.051 126.311 190.043 126.306 190.033 126.3C190.013 126.287 189.987 126.27 189.955 126.249C189.891 126.205 189.811 126.147 189.716 126.074C189.525 125.93 189.291 125.742 189.03 125.524C188.723 125.268 188.386 124.975 188.047 124.673C197.883 128.007 205.116 136.173 208.116 143.333ZM208.116 143.333L209.039 142.946L208.116 143.333Z" fill="#F8FF00"/>
<path d="M208.116 143.333C210.238 148.396 213.507 152.528 216.678 156.536C217.058 157.015 217.436 157.493 217.81 157.97C221.343 162.474 224.602 166.985 226.188 172.824C227.814 178.813 228.509 185.001 229.211 191.25C229.253 191.624 229.296 191.998 229.338 192.372L229.338 192.372C229.483 193.657 229.675 194.972 229.866 196.284C229.932 196.738 229.998 197.191 230.062 197.643L230.061 197.643C230.693 202.088 231.142 206.435 229.935 210.424L229.935 210.424C228.233 216.054 223.351 219.731 217.384 221.831C211.425 223.927 204.565 224.377 199.278 223.676L199.025 223.642L198.787 223.734C194.882 225.237 191.328 225.832 188.404 223.834L188.403 223.834C187.001 222.877 185.894 221.306 184.902 219.477C184.411 218.571 183.962 217.63 183.522 216.7L183.445 216.537C183.036 215.671 182.629 214.81 182.213 214.038C181.706 213.095 181.122 212.128 180.532 211.162C180.463 211.049 180.394 210.935 180.324 210.822C179.799 209.962 179.273 209.102 178.777 208.23C177.648 206.248 176.728 204.302 176.384 202.403L176.384 202.403C175.765 198.998 177.435 195.98 179.939 192.906C180.796 191.855 181.712 190.84 182.637 189.817C183.063 189.345 183.49 188.871 183.915 188.391C185.236 186.897 186.508 185.358 187.419 183.762L187.419 183.762C190.542 178.29 190.606 171.766 189.702 165.392C189.248 162.194 188.544 158.992 187.831 155.935C187.679 155.283 187.526 154.638 187.376 154.002C186.818 151.639 186.287 149.389 185.888 147.284L185.888 147.284C185.068 142.962 184.617 139.674 185.129 136.691C185.631 133.767 187.08 131.038 190.293 127.92L191.278 126.963L190.065 126.319C190.065 126.319 190.064 126.318 190.063 126.318L190.056 126.314C190.051 126.311 190.043 126.306 190.033 126.3C190.013 126.287 189.987 126.27 189.955 126.249C189.891 126.205 189.811 126.147 189.716 126.074C189.525 125.93 189.291 125.742 189.03 125.524C188.723 125.268 188.386 124.975 188.047 124.673C197.883 128.007 205.116 136.173 208.116 143.333ZM208.116 143.333L209.039 142.946L208.116 143.333Z" fill="url(#paint5_linear_1_5214)"/>
<path d="M208.116 143.333C210.238 148.396 213.507 152.528 216.678 156.536C217.058 157.015 217.436 157.493 217.81 157.97C221.343 162.474 224.602 166.985 226.188 172.824C227.814 178.813 228.509 185.001 229.211 191.25C229.253 191.624 229.296 191.998 229.338 192.372L229.338 192.372C229.483 193.657 229.675 194.972 229.866 196.284C229.932 196.738 229.998 197.191 230.062 197.643L230.061 197.643C230.693 202.088 231.142 206.435 229.935 210.424L229.935 210.424C228.233 216.054 223.351 219.731 217.384 221.831C211.425 223.927 204.565 224.377 199.278 223.676L199.025 223.642L198.787 223.734C194.882 225.237 191.328 225.832 188.404 223.834L188.403 223.834C187.001 222.877 185.894 221.306 184.902 219.477C184.411 218.571 183.962 217.63 183.522 216.7L183.445 216.537C183.036 215.671 182.629 214.81 182.213 214.038C181.706 213.095 181.122 212.128 180.532 211.162C180.463 211.049 180.394 210.935 180.324 210.822C179.799 209.962 179.273 209.102 178.777 208.23C177.648 206.248 176.728 204.302 176.384 202.403L176.384 202.403C175.765 198.998 177.435 195.98 179.939 192.906C180.796 191.855 181.712 190.84 182.637 189.817C183.063 189.345 183.49 188.871 183.915 188.391C185.236 186.897 186.508 185.358 187.419 183.762L187.419 183.762C190.542 178.29 190.606 171.766 189.702 165.392C189.248 162.194 188.544 158.992 187.831 155.935C187.679 155.283 187.526 154.638 187.376 154.002C186.818 151.639 186.287 149.389 185.888 147.284L185.888 147.284C185.068 142.962 184.617 139.674 185.129 136.691C185.631 133.767 187.08 131.038 190.293 127.92L191.278 126.963L190.065 126.319C190.065 126.319 190.064 126.318 190.063 126.318L190.056 126.314C190.051 126.311 190.043 126.306 190.033 126.3C190.013 126.287 189.987 126.27 189.955 126.249C189.891 126.205 189.811 126.147 189.716 126.074C189.525 125.93 189.291 125.742 189.03 125.524C188.723 125.268 188.386 124.975 188.047 124.673C197.883 128.007 205.116 136.173 208.116 143.333ZM208.116 143.333L209.039 142.946L208.116 143.333Z" stroke="#457B00" stroke-width="2"/>
<path d="M217.725 170.571C213.976 168.579 211.118 165.719 206.862 165.622C203.673 165.548 200.303 165.563 198.155 168.25C195.577 171.478 194.473 176.819 194.456 180.809C194.456 180.852 194.487 180.87 194.492 180.91C193.022 182.957 191.724 185.151 190.452 187.242C189.893 188.16 191.071 189.513 192.017 188.806C196.039 185.791 197.463 180.561 201.763 177.743C205.906 175.03 216.957 170.751 220.204 176.341C220.56 176.952 220.862 177.68 221.515 177.957C223.78 178.916 222.511 174.536 222.116 173.881C221.172 172.319 219.275 171.397 217.725 170.573V170.571Z" fill="#457B00"/>
<path d="M215.242 226.003C211.946 227.218 208.308 227.605 204.822 227.976C204.695 227.99 204.568 228.003 204.442 228.017C203.818 228.084 203.144 228.172 202.439 228.265C199.225 228.687 195.355 229.196 192.581 228.114L210.541 180.573C212.242 182.193 214.054 183.782 215.873 185.376C223.666 192.21 231.569 199.14 231.321 208.95C231.186 214.344 220.192 224.178 215.242 226.003ZM215.242 226.003L214.896 225.065M215.242 226.003L214.896 225.065C214.896 225.065 214.896 225.065 214.896 225.065M214.896 225.065C216.005 224.656 217.532 223.763 219.234 222.52C220.92 221.288 222.725 219.752 224.382 218.105C226.042 216.457 227.535 214.718 228.613 213.083C229.711 211.417 230.294 209.986 230.321 208.925L230.321 208.925C230.47 203.037 227.502 198.185 223.221 193.612C221.082 191.327 218.646 189.144 216.154 186.954C215.842 186.679 215.528 186.404 215.215 186.129C213.136 184.306 211.04 182.469 209.11 180.583C208.203 180.517 207.383 180.397 206.629 180.276C206.45 180.247 206.276 180.219 206.106 180.191C205.451 180.083 204.86 179.986 204.269 179.926C202.904 179.788 201.622 179.86 200.048 180.577C199.728 181.001 198.99 182.007 198.434 182.766C198.12 183.193 197.864 183.542 197.773 183.663C196.992 184.711 196.369 185.75 195.772 186.775C195.696 186.906 195.62 187.037 195.544 187.168C195.032 188.051 194.517 188.938 193.942 189.76C192.58 191.707 190.842 193.34 187.733 194.298C187.152 194.477 186.615 194.606 186.135 194.721L186.126 194.724C185.64 194.84 185.225 194.94 184.829 195.066C184.069 195.308 183.397 195.642 182.677 196.354L214.896 225.065ZM214.896 225.065C211.719 226.235 208.192 226.611 204.668 226.987C204.557 226.999 204.446 227.011 204.336 227.023L204.336 227.023C203.662 227.095 202.967 227.186 202.252 227.281C201.024 227.442 199.74 227.612 198.413 227.702C196.34 227.842 194.424 227.759 192.944 227.182L192.944 227.182C192.249 226.912 191.479 226.678 190.737 226.453L190.718 226.448C189.955 226.216 189.212 225.991 188.516 225.726C187.088 225.184 186.091 224.559 185.624 223.684L214.896 225.065ZM181.061 214.275C181.68 215.566 182.164 216.61 182.606 217.562C183.52 219.534 184.252 221.111 185.624 223.684L181.061 214.275ZM181.061 214.275C180.021 212.105 179.407 208.585 179.597 205.061M181.061 214.275L179.597 205.061M179.597 205.061C179.789 201.515 180.779 198.233 182.677 196.355L179.597 205.061Z" fill="#F8FF00"/>
<path d="M215.242 226.003C211.946 227.218 208.308 227.605 204.822 227.976C204.695 227.99 204.568 228.003 204.442 228.017C203.818 228.084 203.144 228.172 202.439 228.265C199.225 228.687 195.355 229.196 192.581 228.114L210.541 180.573C212.242 182.193 214.054 183.782 215.873 185.376C223.666 192.21 231.569 199.14 231.321 208.95C231.186 214.344 220.192 224.178 215.242 226.003ZM215.242 226.003L214.896 225.065M215.242 226.003L214.896 225.065C214.896 225.065 214.896 225.065 214.896 225.065M214.896 225.065C216.005 224.656 217.532 223.763 219.234 222.52C220.92 221.288 222.725 219.752 224.382 218.105C226.042 216.457 227.535 214.718 228.613 213.083C229.711 211.417 230.294 209.986 230.321 208.925L230.321 208.925C230.47 203.037 227.502 198.185 223.221 193.612C221.082 191.327 218.646 189.144 216.154 186.954C215.842 186.679 215.528 186.404 215.215 186.129C213.136 184.306 211.04 182.469 209.11 180.583C208.203 180.517 207.383 180.397 206.629 180.276C206.45 180.247 206.276 180.219 206.106 180.191C205.451 180.083 204.86 179.986 204.269 179.926C202.904 179.788 201.622 179.86 200.048 180.577C199.728 181.001 198.99 182.007 198.434 182.766C198.12 183.193 197.864 183.542 197.773 183.663C196.992 184.711 196.369 185.75 195.772 186.775C195.696 186.906 195.62 187.037 195.544 187.168C195.032 188.051 194.517 188.938 193.942 189.76C192.58 191.707 190.842 193.34 187.733 194.298C187.152 194.477 186.615 194.606 186.135 194.721L186.126 194.724C185.64 194.84 185.225 194.94 184.829 195.066C184.069 195.308 183.397 195.642 182.677 196.354L214.896 225.065ZM214.896 225.065C211.719 226.235 208.192 226.611 204.668 226.987C204.557 226.999 204.446 227.011 204.336 227.023L204.336 227.023C203.662 227.095 202.967 227.186 202.252 227.281C201.024 227.442 199.74 227.612 198.413 227.702C196.34 227.842 194.424 227.759 192.944 227.182L192.944 227.182C192.249 226.912 191.479 226.678 190.737 226.453L190.718 226.448C189.955 226.216 189.212 225.991 188.516 225.726C187.088 225.184 186.091 224.559 185.624 223.684L214.896 225.065ZM181.061 214.275C181.68 215.566 182.164 216.61 182.606 217.562C183.52 219.534 184.252 221.111 185.624 223.684L181.061 214.275ZM181.061 214.275C180.021 212.105 179.407 208.585 179.597 205.061M181.061 214.275L179.597 205.061M179.597 205.061C179.789 201.515 180.779 198.233 182.677 196.355L179.597 205.061Z" fill="url(#paint6_linear_1_5214)"/>
<path d="M215.242 226.003C211.946 227.218 208.308 227.605 204.822 227.976C204.695 227.99 204.568 228.003 204.442 228.017C203.818 228.084 203.144 228.172 202.439 228.265C199.225 228.687 195.355 229.196 192.581 228.114L210.541 180.573C212.242 182.193 214.054 183.782 215.873 185.376C223.666 192.21 231.569 199.14 231.321 208.95C231.186 214.344 220.192 224.178 215.242 226.003ZM215.242 226.003L214.896 225.065M215.242 226.003L214.896 225.065C214.896 225.065 214.896 225.065 214.896 225.065M214.896 225.065C216.005 224.656 217.532 223.763 219.234 222.52C220.92 221.288 222.725 219.752 224.382 218.105C226.042 216.457 227.535 214.718 228.613 213.083C229.711 211.417 230.294 209.986 230.321 208.925L230.321 208.925C230.47 203.037 227.502 198.185 223.221 193.612C221.082 191.327 218.646 189.144 216.154 186.954C215.842 186.679 215.528 186.404 215.215 186.129C213.136 184.306 211.04 182.469 209.11 180.583C208.203 180.517 207.383 180.397 206.629 180.276C206.45 180.247 206.276 180.219 206.106 180.191C205.451 180.083 204.86 179.986 204.269 179.926C202.904 179.788 201.622 179.86 200.048 180.577C199.728 181.001 198.99 182.007 198.434 182.766C198.12 183.193 197.864 183.542 197.773 183.663C196.992 184.711 196.369 185.75 195.772 186.775C195.696 186.906 195.62 187.037 195.544 187.168C195.032 188.051 194.517 188.938 193.942 189.76C192.58 191.707 190.842 193.34 187.733 194.298C187.152 194.477 186.615 194.606 186.135 194.721L186.126 194.724C185.64 194.84 185.225 194.94 184.829 195.066C184.069 195.308 183.397 195.642 182.677 196.354L214.896 225.065ZM214.896 225.065C211.719 226.235 208.192 226.611 204.668 226.987C204.557 226.999 204.446 227.011 204.336 227.023L204.336 227.023C203.662 227.095 202.967 227.186 202.252 227.281C201.024 227.442 199.74 227.612 198.413 227.702C196.34 227.842 194.424 227.759 192.944 227.182L192.944 227.182C192.249 226.912 191.479 226.678 190.737 226.453L190.718 226.448C189.955 226.216 189.212 225.991 188.516 225.726C187.088 225.184 186.091 224.559 185.624 223.684L214.896 225.065ZM181.061 214.275C181.68 215.566 182.164 216.61 182.606 217.562C183.52 219.534 184.252 221.111 185.624 223.684L181.061 214.275ZM181.061 214.275C180.021 212.105 179.407 208.585 179.597 205.061M181.061 214.275L179.597 205.061M179.597 205.061C179.789 201.515 180.779 198.233 182.677 196.355L179.597 205.061Z" stroke="#457B00" stroke-width="2"/>
<path d="M195.569 198.49C189.569 196.318 179.181 198.823 181.165 207.003C181.268 207.422 181.593 207.606 181.939 207.631C181.383 214.45 184.317 222.597 190.599 225.328C197.322 228.251 205.288 224.226 206.487 216.892C207.733 209.27 202.722 201.079 195.569 198.49Z" fill="#457B00"/>
<path d="M192.336 201.837L192.336 201.837C198.101 204.764 198.677 210.977 199.008 215.093C199.165 217.054 198.58 218.498 197.55 219.613C196.503 220.748 194.969 221.57 193.189 222.206C189.037 223.686 184.729 224.811 180.394 225.627L180.394 225.627C180.237 225.656 179.659 225.737 178.884 225.845C178.185 225.943 177.326 226.063 176.473 226.188C175.584 226.318 174.709 226.452 174.054 226.569C173.875 226.601 173.709 226.632 173.563 226.661L173.393 209.065C173.499 208.998 173.64 208.91 173.812 208.804C174.231 208.545 174.837 208.177 175.578 207.742C177.061 206.872 179.083 205.737 181.244 204.675C183.408 203.611 185.694 202.629 187.71 202.055C188.717 201.768 189.642 201.588 190.44 201.546C191.243 201.504 191.877 201.604 192.336 201.837Z" fill="#FFAB91" stroke="#E67857"/>
<path d="M179.11 225.224C179.055 225.435 179.008 225.607 178.972 225.733C178.823 225.784 178.608 225.856 178.334 225.946C177.767 226.134 176.949 226.399 175.949 226.708C173.948 227.325 171.221 228.117 168.313 228.815C165.403 229.514 162.325 230.115 159.618 230.357C156.881 230.601 154.631 230.465 153.301 229.786L153.301 229.786L153.291 229.782C152.608 229.451 152.214 228.981 152.06 228.348L151.959 227.936L151.537 227.967C151.197 227.993 150.877 228.015 150.583 228.015V228.015L150.577 228.015C149.713 228.026 149.031 227.927 148.388 227.66C147.743 227.391 147.1 226.935 146.343 226.178L146.309 226.144L146.269 226.117C146.241 226.098 146.216 226.08 146.194 226.061C146.172 226.042 146.158 226.027 146.15 226.016L146.129 225.988L146.104 225.962C146.066 225.924 146.049 225.894 146.043 225.884C146.04 225.88 146.04 225.88 146.042 225.886C146.044 225.894 146.05 225.915 146.051 225.949C146.052 225.965 146.051 225.989 146.047 226.019C146.042 226.045 146.035 226.077 146.021 226.11C146.02 226.111 146.02 226.112 146.019 226.113C145.987 226.189 145.929 226.265 145.842 226.318C145.82 226.331 145.798 226.342 145.777 226.35C145.767 226.338 145.758 226.326 145.749 226.314C145.714 226.279 145.684 226.243 145.657 226.207L145.793 225.407C145.516 225.31 145.193 225.267 144.934 225.233C144.911 225.23 144.888 225.227 144.867 225.224C144.565 225.183 144.357 225.148 144.217 225.087C143.758 224.866 143.354 224.588 143.019 224.231L143.003 224.215L142.986 224.2C142.609 223.865 142.309 223.441 142.094 222.965L142.094 222.965C141.548 221.762 141.625 220.784 142.037 219.961L142.037 219.961L142.043 219.949C142.181 219.653 142.386 219.382 142.659 219.085L142.948 218.771L142.683 218.436C142.643 218.385 142.602 218.342 142.569 218.31C142.553 218.293 142.537 218.278 142.524 218.266C142.511 218.253 142.5 218.242 142.49 218.233C142.471 218.213 142.461 218.203 142.456 218.195C142.453 218.192 142.452 218.19 142.451 218.189L142.45 218.187L142.439 218.165L142.425 218.143C142.32 217.975 142.255 217.836 142.224 217.696L142.216 217.661L142.203 217.627C141.824 216.627 142.159 215.354 142.938 214.553C143.866 213.627 145.316 213.153 146.966 212.804C147.501 212.691 148.036 212.594 148.571 212.498C148.859 212.446 149.148 212.394 149.436 212.339C150.244 212.186 151.037 212.015 151.738 211.773C153.559 211.166 155.327 210.433 157.084 209.705C157.376 209.584 157.667 209.464 157.958 209.344L159.585 208.673L157.849 208.388C155.543 208.009 153.224 207.084 151.971 206.008C151.339 205.465 151.065 204.961 151.066 204.54C151.068 204.146 151.316 203.632 152.209 203.065L152.211 203.063C152.914 202.612 153.855 202.432 154.92 202.312C155.155 202.285 155.398 202.261 155.645 202.237C156.464 202.157 157.32 202.073 158.048 201.867C158.494 201.744 158.929 201.618 159.358 201.493C161.254 200.939 163.01 200.427 164.983 200.483L164.985 200.483C167.026 200.53 169.111 201 170.833 202.032L170.833 202.032L170.841 202.037C172.069 202.741 173.159 203.845 174.184 205.109C175.054 206.192 175.829 207.369 176.562 208.481C176.624 208.574 176.685 208.667 176.746 208.759L176.744 208.76L177.053 209.23C178.742 211.797 179.974 214.611 180.114 217.656C180.185 219.569 179.885 221.646 179.561 223.258C179.4 224.062 179.235 224.743 179.11 225.224Z" fill="#FFAB91" stroke="#E67857"/>
<path d="M160.671 216.496C156.779 218.768 151.435 219.397 146.985 219.856C145.076 220.05 143.285 220.05 141.594 219.735C141.763 219.372 142.005 219.058 142.295 218.745C142.198 218.624 142.077 218.551 142.005 218.407C141.885 218.213 141.788 218.02 141.739 217.803C147.809 218.624 154.094 215.676 160.285 215.118C161.034 215.046 161.252 216.158 160.671 216.497V216.496Z" fill="#E67857"/>
<path d="M160.623 223.315C156.198 225.539 151.024 226.675 145.995 226.532C145.923 226.483 145.826 226.411 145.754 226.314C145.56 226.12 145.488 225.879 145.633 225.879C145.15 225.71 144.449 225.733 144.014 225.541C143.506 225.298 143.046 224.985 142.66 224.574C145.295 224.694 147.955 224.405 150.639 223.824C153.83 223.171 156.949 221.889 160.215 221.769C161.013 221.746 161.376 222.954 160.626 223.317L160.623 223.315Z" fill="#E67857"/>
<path d="M162.557 227.668C159.656 229.094 156.392 229.94 153.079 230.232C152.28 229.845 151.773 229.264 151.579 228.466C151.241 228.489 150.901 228.515 150.589 228.515C154.361 227.813 158.036 226.895 161.831 225.904C162.847 225.638 163.548 227.161 162.557 227.67V227.668Z" fill="#E67857"/>
<path d="M114.999 200.937C114.993 200.877 114.988 200.82 114.983 200.762C114.943 200.331 114.894 199.879 114.65 199.523C113.952 198.509 112.18 199.117 111.739 200.268C111.104 201.927 112.843 206.374 114.643 203.5C115.11 202.756 115.076 201.821 114.999 200.937Z" fill="#457B00"/>
<path d="M112.594 231.83C111.759 229.797 108.937 232.459 109.992 234.856C110.954 237.04 112.84 234.532 112.817 233.161C112.808 232.587 112.725 232.15 112.594 231.83Z" fill="#457B00"/>
<path d="M110.869 263.283C110.774 263.059 110.643 262.856 110.454 262.694C109.557 261.917 108.039 262.74 107.71 263.882C107.273 265.403 108.829 269.582 110.679 266.985C111.18 266.281 111.18 265.344 111.11 264.481C111.078 264.078 111.022 263.652 110.867 263.285L110.869 263.283Z" fill="#457B00"/>
<path d="M139.449 279.836C138.458 279.86 137.491 279.885 136.498 279.885C134.878 275.532 133.113 271.228 131.106 266.974C125.642 255.392 119.718 244.076 121.387 230.899C121.484 230.221 122.523 230.174 122.475 230.899C121.362 245.744 130.213 258.849 135.991 271.908C137.128 274.495 138.289 277.154 139.449 279.838V279.836Z" fill="#E4E4E4"/>
<path d="M103.771 72.1252L103.698 72.1481C103.288 72.2586 102.978 72.1727 102.765 72.0207C102.53 71.8522 102.325 71.5369 102.285 71.0708L102.285 71.0706C102.207 70.1438 102.476 68.9697 103.07 67.7391C103.658 66.5206 104.528 65.323 105.546 64.3638C107.643 62.3892 109.978 61.7118 111.84 63.0207L111.84 63.0211C112.785 63.6844 113.195 64.9738 112.802 65.8816L112.802 65.8818C112.435 66.7296 111.474 67.3244 110.216 67.7959L110.215 67.7961C108.916 68.2842 107.694 68.9455 106.582 69.8052C106.174 70.1202 105.763 70.5335 105.412 70.8856C105.276 71.0231 105.148 71.1513 105.034 71.2607C104.567 71.7068 104.181 71.9948 103.771 72.1252Z" fill="#A93800" stroke="#2F1409" stroke-width="2"/>
<path d="M158.455 64.1078L158.53 64.1007C158.951 64.042 159.203 63.8419 159.339 63.6189C159.49 63.3717 159.556 63.0015 159.41 62.557L159.41 62.5567C159.12 61.673 158.413 60.6975 157.386 59.7967C156.369 58.9047 155.1 58.1421 153.788 57.657C151.086 56.6585 148.672 56.9471 147.47 58.8794L147.469 58.88C146.859 59.8597 146.985 61.2068 147.702 61.8889L147.702 61.8891C148.371 62.5262 149.488 62.6981 150.83 62.6408L150.831 62.6407C152.217 62.5825 153.601 62.7136 154.96 63.0705C155.459 63.2011 155.999 63.4209 156.459 63.6082C156.639 63.6814 156.806 63.7496 156.954 63.8056C157.558 64.0338 158.026 64.148 158.455 64.1078Z" fill="#A93800" stroke="#2F1409" stroke-width="2"/>
</g>
<defs>
<linearGradient id="paint0_linear_1_5214" x1="79.6008" y1="43.1849" x2="180.498" y2="43.1849" gradientUnits="userSpaceOnUse">
<stop stop-color="#F06700" stop-opacity="0"/>
<stop offset="1" stop-color="#F06700"/>
</linearGradient>
<linearGradient id="paint1_linear_1_5214" x1="76.5676" y1="201.7" x2="118.31" y2="201.7" gradientUnits="userSpaceOnUse">
<stop stop-color="#457B00" stop-opacity="0"/>
<stop offset="1" stop-color="#457B00"/>
</linearGradient>
<linearGradient id="paint2_linear_1_5214" x1="163.722" y1="199.807" x2="212.805" y2="199.807" gradientUnits="userSpaceOnUse">
<stop stop-color="#457B00" stop-opacity="0"/>
<stop offset="1" stop-color="#457B00"/>
</linearGradient>
<linearGradient id="paint3_linear_1_5214" x1="48.6672" y1="175.925" x2="104.913" y2="175.925" gradientUnits="userSpaceOnUse">
<stop stop-color="#457B00" stop-opacity="0"/>
<stop offset="1" stop-color="#457B00"/>
</linearGradient>
<linearGradient id="paint4_linear_1_5214" x1="173.846" y1="180.85" x2="202.86" y2="173.397" gradientUnits="userSpaceOnUse">
<stop stop-color="#F06700" stop-opacity="0"/>
<stop offset="1" stop-color="#F06700"/>
</linearGradient>
<linearGradient id="paint5_linear_1_5214" x1="175.254" y1="174.455" x2="231.693" y2="174.455" gradientUnits="userSpaceOnUse">
<stop stop-color="#457B00" stop-opacity="0"/>
<stop offset="1" stop-color="#457B00"/>
</linearGradient>
<linearGradient id="paint6_linear_1_5214" x1="178.563" y1="203.815" x2="231.326" y2="203.815" gradientUnits="userSpaceOnUse">
<stop stop-color="#457B00" stop-opacity="0"/>
<stop offset="1" stop-color="#457B00"/>
</linearGradient>
<clipPath id="clip0_1_5214">
<rect width="280" height="280" fill="white" transform="translate(0.666748 6.10352e-05)"/>
</clipPath>
<clipPath id="clip1_1_5214">
<rect width="183.028" height="280" fill="white" transform="translate(48.6667 6.10352e-05)"/>
</clipPath>
<clipPath id="clip2_1_5214">
<rect width="73.5864" height="88" fill="white" transform="translate(127.127 174.341) rotate(-14.4063)"/>
</clipPath>
</defs>
</svg>
