<svg width="280" height="280" viewBox="0 0 280 280" fill="none" xmlns="http://www.w3.org/2000/svg">
<g clip-path="url(#clip0_1_4943)">
<path d="M112.59 274.639C85.9215 266.701 58.8533 251.894 42.3203 222.833C25.7828 193.772 23.8914 147.694 44.1263 123.166C56.8271 107.771 74.9819 103.646 89.6415 91.7555C108.735 76.2671 120.524 48.8753 137.551 29.5615C157.548 6.88298 184.935 -3.71858 210.907 1.16828C229.844 4.73329 250.618 21.7639 250.317 47.3131C250.003 74.1975 226.776 92.4031 224.983 119.181C222.898 150.331 250.393 173.57 250.362 204.841C250.34 227.379 235.927 245.098 221.268 256.247C186.634 282.584 144.793 284.213 112.59 274.632V274.639Z" fill="#FEFFCC"/>
</g>
<path d="M135.118 1C140.06 1 144.059 4.98881 144.059 9.90125V179.755C144.059 184.667 140.06 188.656 135.118 188.656H13.3153C8.3732 188.656 4.37402 184.667 4.37402 179.755V9.90125C4.37402 4.98881 8.37315 1 13.3153 1H135.118Z" fill="#FEFFCC" stroke="#F06700" stroke-width="2"/>
<rect x="49.7627" y="138.23" width="59.2593" height="1.47524" rx="0.737619" fill="#5A5A5A"/>
<path d="M46.8567 135.722H39.374V142.19H46.8567V135.722Z" fill="white" stroke="#A93800" stroke-linecap="round" stroke-linejoin="round"/>
<g filter="url(#filter0_d_1_4943)">
<rect x="18.6333" y="114.921" width="111.111" height="11.8019" rx="4" fill="white"/>
<rect x="19.1333" y="115.421" width="110.111" height="10.8019" rx="3.5" stroke="#A93800"/>
</g>
<g filter="url(#filter1_d_1_4943)">
<rect x="18.6333" y="98.6934" width="111.111" height="11.8019" rx="4" fill="white"/>
<rect x="19.1333" y="99.1934" width="110.111" height="10.8019" rx="3.5" stroke="#A93800"/>
</g>
<g filter="url(#filter2_d_1_4943)">
<rect x="18.6333" y="82.4658" width="111.111" height="11.8019" rx="4" fill="white"/>
<rect x="19.1333" y="82.9658" width="110.111" height="10.8019" rx="3.5" stroke="#A93800"/>
</g>
<g filter="url(#filter3_d_1_4943)">
<rect x="18.6333" y="66.2382" width="111.111" height="11.8019" rx="4" fill="white"/>
<rect x="19.1333" y="66.7382" width="110.111" height="10.8019" rx="3.5" stroke="#A93800"/>
</g>
<path d="M74.1905 26.7344C65.4594 26.7344 58.374 33.7831 58.374 42.4865C58.374 51.1905 65.4594 58.2392 74.1905 58.2392C82.9216 58.2392 90.0069 51.1898 90.0069 42.4865C90.0069 33.7831 82.9216 26.7344 74.1905 26.7344Z" fill="#FFED30"/>
<path d="M74.1905 26.7344C65.4594 26.7344 58.374 33.7831 58.374 42.4865C58.374 51.1905 65.4594 58.2392 74.1905 58.2392C82.9216 58.2392 90.0069 51.1898 90.0069 42.4865C90.0069 33.7831 82.9216 26.7344 74.1905 26.7344Z" fill="url(#paint0_linear_1_4943)"/>
<path d="M74.1905 26.7344C65.4594 26.7344 58.374 33.7831 58.374 42.4865C58.374 51.1905 65.4594 58.2392 74.1905 58.2392C82.9216 58.2392 90.0069 51.1898 90.0069 42.4865C90.0069 33.7831 82.9216 26.7344 74.1905 26.7344Z" stroke="#F06700" stroke-width="2"/>
<g clip-path="url(#clip1_1_4943)">
<path d="M73.9661 42.2651C75.0264 42.2651 75.9314 41.8915 76.6813 41.1448C77.4313 40.398 77.8064 39.4968 77.8064 38.4411C77.8064 37.3856 77.4313 36.4844 76.6813 35.7374C75.9312 34.9907 75.0262 34.6173 73.9661 34.6173C72.9061 34.6173 72.001 34.9907 71.2511 35.7374C70.501 36.4844 70.126 37.3856 70.126 38.4411C70.126 39.4968 70.501 40.398 71.2511 41.1448C72.0012 41.8915 72.9061 42.2651 73.9661 42.2651Z" fill="white"/>
<path d="M80.9711 46.303C80.9477 45.9678 80.9009 45.6059 80.8311 45.2175C80.761 44.8291 80.6726 44.4691 80.5659 44.137C80.4592 43.8052 80.3159 43.4815 80.1359 43.1662C79.9559 42.8508 79.7493 42.582 79.5158 42.3595C79.2823 42.1371 78.9974 41.9596 78.6609 41.8269C78.3241 41.6942 77.9524 41.6277 77.5457 41.6277C77.4858 41.6277 77.3457 41.699 77.1257 41.8418C76.9059 41.9846 76.6575 42.1439 76.3808 42.3199C76.1042 42.4956 75.744 42.6551 75.3008 42.7976C74.8574 42.9404 74.4125 43.0117 73.9657 43.0117C73.519 43.0117 73.074 42.9404 72.6307 42.7976C72.1875 42.6551 71.8274 42.4956 71.5507 42.3199C71.274 42.1439 71.0257 41.9846 70.8058 41.8418C70.5857 41.699 70.4458 41.6277 70.3858 41.6277C69.9791 41.6277 69.6074 41.6942 69.2708 41.8269C68.9341 41.9596 68.6491 42.1372 68.4157 42.3595C68.1824 42.582 67.9757 42.8508 67.7958 43.1662C67.6158 43.4815 67.4725 43.8053 67.3658 44.137C67.2592 44.4691 67.1708 44.8291 67.1008 45.2175C67.0308 45.6059 66.9841 45.9676 66.9607 46.303C66.9374 46.6384 66.9258 46.9819 66.9258 47.3338C66.9258 48.1303 67.1692 48.7595 67.6558 49.2209C68.1425 49.6821 68.7893 49.9127 69.5959 49.9127H78.3362C79.1428 49.9127 79.7894 49.6821 80.2762 49.2209C80.7631 48.7595 81.0064 48.1304 81.0064 47.3338C81.0063 46.9819 80.9947 46.6384 80.9711 46.303Z" fill="white"/>
</g>
<g filter="url(#filter4_d_1_4943)">
<path d="M62.4476 151.212H93.0407C96.0475 151.212 98.4849 153.639 98.4849 156.633C98.4849 159.626 96.0475 162.053 93.0407 162.053H62.4476C59.4409 162.053 57.0034 159.626 57.0034 156.633C57.0034 153.639 59.4409 151.212 62.4476 151.212Z" fill="#F8FF00"/>
<path d="M62.4476 151.212H93.0407C96.0475 151.212 98.4849 153.639 98.4849 156.633C98.4849 159.626 96.0475 162.053 93.0407 162.053H62.4476C59.4409 162.053 57.0034 159.626 57.0034 156.633C57.0034 153.639 59.4409 151.212 62.4476 151.212Z" stroke="#A93800"/>
</g>
<path d="M69.022 154.937H70.2789C70.5366 154.937 70.7581 154.975 70.9433 155.052C71.13 155.129 71.2735 155.243 71.3738 155.393C71.4741 155.544 71.5243 155.729 71.5243 155.949C71.5243 156.129 71.4934 156.283 71.4317 156.412C71.3715 156.54 71.2859 156.646 71.1748 156.732C71.0652 156.817 70.9363 156.885 70.7882 156.935L70.5683 157.051H69.4757L69.471 156.511H70.2835C70.4055 156.511 70.5065 156.49 70.5868 156.447C70.667 156.404 70.7272 156.344 70.7673 156.267C70.809 156.19 70.8298 156.101 70.8298 155.999C70.8298 155.892 70.8098 155.799 70.7697 155.721C70.7295 155.642 70.6686 155.582 70.5868 155.541C70.505 155.499 70.4024 155.478 70.2789 155.478H69.7164V158.293H69.022V154.937ZM70.9062 158.293L70.1377 156.797L70.8715 156.792L71.6493 158.261V158.293H70.9062Z" fill="#A93800"/>
<path d="M73.1701 158.339C72.9757 158.339 72.8013 158.308 72.647 158.247C72.4927 158.184 72.3615 158.097 72.2535 157.986C72.147 157.876 72.0652 157.747 72.0081 157.601C71.951 157.454 71.9224 157.297 71.9224 157.131V157.039C71.9224 156.85 71.9494 156.677 72.0035 156.52C72.0575 156.364 72.1346 156.228 72.2349 156.112C72.3368 155.997 72.4602 155.909 72.6053 155.847C72.7504 155.784 72.9139 155.753 73.096 155.753C73.2735 155.753 73.4309 155.782 73.5683 155.84C73.7056 155.899 73.8206 155.982 73.9132 156.089C74.0073 156.197 74.0783 156.326 74.1261 156.477C74.174 156.626 74.1979 156.792 74.1979 156.974V157.251H72.2072V156.809H73.5428V156.758C73.5428 156.666 73.5258 156.583 73.4919 156.511C73.4595 156.437 73.4101 156.379 73.3437 156.336C73.2774 156.293 73.1925 156.271 73.0891 156.271C73.0011 156.271 72.9255 156.291 72.8623 156.329C72.799 156.367 72.7473 156.421 72.7072 156.49C72.6686 156.56 72.6393 156.641 72.6192 156.735C72.6007 156.827 72.5914 156.928 72.5914 157.039V157.131C72.5914 157.231 72.6053 157.323 72.6331 157.408C72.6624 157.492 72.7033 157.565 72.7558 157.627C72.8098 157.688 72.8746 157.736 72.9502 157.77C73.0274 157.804 73.1146 157.82 73.2118 157.82C73.3322 157.82 73.444 157.797 73.5474 157.751C73.6524 157.704 73.7427 157.632 73.8183 157.537L74.1423 157.887C74.0899 157.963 74.0181 158.035 73.9271 158.104C73.8376 158.173 73.7295 158.23 73.603 158.275C73.4764 158.318 73.3322 158.339 73.1701 158.339Z" fill="#A93800"/>
<path d="M76.1632 155.799H76.7673V158.21C76.7673 158.437 76.7164 158.63 76.6146 158.789C76.5143 158.948 76.3738 159.069 76.1933 159.15C76.0127 159.233 75.8028 159.275 75.5636 159.275C75.4587 159.275 75.3476 159.261 75.2303 159.233C75.1146 159.206 75.0035 159.163 74.897 159.104C74.792 159.046 74.7041 158.972 74.6331 158.883L74.9271 158.491C75.0042 158.58 75.0937 158.649 75.1956 158.699C75.2974 158.749 75.4101 158.775 75.5335 158.775C75.6539 158.775 75.7558 158.752 75.8391 158.708C75.9224 158.665 75.9865 158.601 76.0312 158.517C76.076 158.434 76.0984 158.333 76.0984 158.215V156.375L76.1632 155.799ZM74.478 157.076V157.027C74.478 156.837 74.5011 156.664 74.5474 156.509C74.5953 156.352 74.6624 156.218 74.7488 156.105C74.8368 155.993 74.9433 155.906 75.0683 155.845C75.1933 155.784 75.3345 155.753 75.4919 155.753C75.6585 155.753 75.7982 155.784 75.9109 155.845C76.0235 155.906 76.1161 155.994 76.1886 156.108C76.2612 156.22 76.3175 156.353 76.3576 156.507C76.3993 156.659 76.4317 156.825 76.4548 157.007V157.113C76.4317 157.286 76.397 157.448 76.3507 157.597C76.3044 157.746 76.2434 157.877 76.1678 157.989C76.0922 158.099 75.9981 158.185 75.8854 158.247C75.7743 158.308 75.6416 158.339 75.4873 158.339C75.3329 158.339 75.1933 158.308 75.0683 158.245C74.9448 158.182 74.8391 158.093 74.7511 157.979C74.6632 157.866 74.5953 157.732 74.5474 157.578C74.5011 157.425 74.478 157.257 74.478 157.076ZM75.1447 157.027V157.076C75.1447 157.179 75.1547 157.275 75.1748 157.364C75.1948 157.453 75.2257 157.532 75.2673 157.601C75.3106 157.669 75.3638 157.722 75.4271 157.761C75.4919 157.797 75.5683 157.816 75.6562 157.816C75.7781 157.816 75.8777 157.79 75.9548 157.74C76.032 157.688 76.0899 157.616 76.1285 157.525C76.167 157.435 76.1894 157.33 76.1956 157.212V156.91C76.1925 156.813 76.1794 156.726 76.1562 156.649C76.1331 156.571 76.1007 156.504 76.059 156.449C76.0173 156.394 75.9633 156.351 75.897 156.32C75.8306 156.289 75.7519 156.274 75.6609 156.274C75.5729 156.274 75.4965 156.294 75.4317 156.334C75.3684 156.372 75.3152 156.425 75.272 156.493C75.2303 156.56 75.1987 156.64 75.1771 156.732C75.1555 156.823 75.1447 156.921 75.1447 157.027Z" fill="#A93800"/>
<path d="M77.9896 155.799V158.293H77.3206V155.799H77.9896ZM77.2789 155.149C77.2789 155.052 77.3129 154.972 77.3808 154.909C77.4487 154.846 77.5397 154.815 77.6539 154.815C77.7666 154.815 77.8568 154.846 77.9248 154.909C77.9942 154.972 78.0289 155.052 78.0289 155.149C78.0289 155.246 77.9942 155.326 77.9248 155.389C77.8568 155.452 77.7666 155.483 77.6539 155.483C77.5397 155.483 77.4487 155.452 77.3808 155.389C77.3129 155.326 77.2789 155.246 77.2789 155.149Z" fill="#A93800"/>
<path d="M79.8947 157.604C79.8947 157.556 79.8808 157.513 79.853 157.475C79.8252 157.436 79.7735 157.401 79.6979 157.369C79.6238 157.335 79.5166 157.304 79.3761 157.276C79.2496 157.249 79.1315 157.214 79.022 157.173C78.9139 157.13 78.8198 157.078 78.7396 157.018C78.6609 156.958 78.5991 156.888 78.5544 156.806C78.5096 156.723 78.4873 156.629 78.4873 156.523C78.4873 156.418 78.5096 156.32 78.5544 156.228C78.6007 156.135 78.6663 156.054 78.7511 155.983C78.8376 155.911 78.9425 155.855 79.066 155.815C79.191 155.774 79.3314 155.753 79.4873 155.753C79.7048 155.753 79.8916 155.787 80.0474 155.857C80.2048 155.926 80.3252 156.021 80.4085 156.142C80.4934 156.262 80.5359 156.399 80.5359 156.553H79.8692C79.8692 156.488 79.8553 156.43 79.8275 156.38C79.8013 156.328 79.7596 156.287 79.7025 156.258C79.647 156.227 79.5744 156.212 79.4849 156.212C79.4109 156.212 79.3468 156.225 79.2928 156.251C79.2388 156.275 79.1971 156.309 79.1678 156.352C79.14 156.394 79.1261 156.44 79.1261 156.49C79.1261 156.529 79.1339 156.563 79.1493 156.594C79.1663 156.623 79.1933 156.65 79.2303 156.675C79.2673 156.699 79.3152 156.722 79.3738 156.744C79.434 156.764 79.5081 156.782 79.596 156.799C79.7766 156.836 79.9379 156.885 80.0798 156.945C80.2218 157.003 80.3345 157.083 80.4178 157.184C80.5011 157.284 80.5428 157.416 80.5428 157.578C80.5428 157.689 80.5181 157.79 80.4687 157.883C80.4193 157.975 80.3484 158.056 80.2558 158.125C80.1632 158.192 80.0521 158.245 79.9224 158.284C79.7943 158.321 79.6501 158.339 79.4896 158.339C79.2565 158.339 79.059 158.298 78.897 158.215C78.7365 158.132 78.6146 158.026 78.5312 157.899C78.4494 157.77 78.4085 157.638 78.4085 157.502H79.0405C79.0436 157.593 79.0667 157.666 79.1099 157.721C79.1547 157.777 79.211 157.817 79.2789 157.841C79.3484 157.866 79.4232 157.878 79.5035 157.878C79.5899 157.878 79.6616 157.867 79.7187 157.843C79.7758 157.819 79.819 157.787 79.8484 157.747C79.8792 157.705 79.8947 157.658 79.8947 157.604Z" fill="#A93800"/>
<path d="M82.2025 155.799V156.269H80.7442V155.799H82.2025ZM81.1053 155.183H81.772V157.542C81.772 157.614 81.7812 157.669 81.7998 157.707C81.8198 157.746 81.8491 157.773 81.8877 157.788C81.9263 157.802 81.9749 157.809 82.0335 157.809C82.0752 157.809 82.1123 157.807 82.1447 157.804C82.1786 157.8 82.2072 157.795 82.2303 157.79L82.2326 158.279C82.1755 158.298 82.1138 158.312 82.0474 158.323C81.9811 158.334 81.9078 158.339 81.8275 158.339C81.6809 158.339 81.5528 158.315 81.4433 158.268C81.3352 158.218 81.2519 158.14 81.1933 158.032C81.1346 157.925 81.1053 157.784 81.1053 157.608V155.183Z" fill="#A93800"/>
<path d="M83.7349 158.339C83.5405 158.339 83.3661 158.308 83.2118 158.247C83.0575 158.184 82.9263 158.097 82.8183 157.986C82.7118 157.876 82.63 157.747 82.5729 157.601C82.5158 157.454 82.4873 157.297 82.4873 157.131V157.039C82.4873 156.85 82.5143 156.677 82.5683 156.52C82.6223 156.364 82.6994 156.228 82.7998 156.112C82.9016 155.997 83.0251 155.909 83.1701 155.847C83.3152 155.784 83.4788 155.753 83.6609 155.753C83.8383 155.753 83.9957 155.782 84.1331 155.84C84.2704 155.899 84.3854 155.982 84.478 156.089C84.5721 156.197 84.6431 156.326 84.691 156.477C84.7388 156.626 84.7627 156.792 84.7627 156.974V157.251H82.772V156.809H84.1076V156.758C84.1076 156.666 84.0906 156.583 84.0567 156.511C84.0243 156.437 83.9749 156.379 83.9085 156.336C83.8422 156.293 83.7573 156.271 83.6539 156.271C83.566 156.271 83.4903 156.291 83.4271 156.329C83.3638 156.367 83.3121 156.421 83.272 156.49C83.2334 156.56 83.2041 156.641 83.184 156.735C83.1655 156.827 83.1562 156.928 83.1562 157.039V157.131C83.1562 157.231 83.1701 157.323 83.1979 157.408C83.2272 157.492 83.2681 157.565 83.3206 157.627C83.3746 157.688 83.4394 157.736 83.515 157.77C83.5922 157.804 83.6794 157.82 83.7766 157.82C83.897 157.82 84.0089 157.797 84.1123 157.751C84.2172 157.704 84.3075 157.632 84.3831 157.537L84.7072 157.887C84.6547 157.963 84.5829 158.035 84.4919 158.104C84.4024 158.173 84.2943 158.23 84.1678 158.275C84.0413 158.318 83.897 158.339 83.7349 158.339Z" fill="#A93800"/>
<path d="M85.809 156.343V158.293H85.1423V155.799H85.7697L85.809 156.343ZM86.5636 155.783L86.5521 156.398C86.5197 156.394 86.4803 156.39 86.434 156.387C86.3893 156.382 86.3484 156.38 86.3113 156.38C86.2172 156.38 86.1354 156.392 86.066 156.417C85.9981 156.44 85.941 156.474 85.8947 156.52C85.8499 156.566 85.816 156.623 85.7928 156.689C85.7712 156.755 85.7589 156.83 85.7558 156.915L85.6215 156.873C85.6215 156.712 85.6377 156.563 85.6701 156.428C85.7025 156.291 85.7496 156.172 85.8113 156.071C85.8746 155.969 85.9518 155.891 86.0428 155.836C86.1339 155.78 86.238 155.753 86.3553 155.753C86.3923 155.753 86.4302 155.756 86.4687 155.762C86.5073 155.767 86.5389 155.774 86.5636 155.783Z" fill="#A93800"/>
<path fill-rule="evenodd" clip-rule="evenodd" d="M243.468 241.42C233.002 283.228 148.612 286.568 134.648 241.42C128.103 220.262 142.277 147.821 161.853 140.856C176.678 135.581 208.374 135.098 217.39 140.847C235.146 152.169 248.892 219.753 243.468 241.42Z" fill="#897973"/>
<path d="M211.476 212.559L211.428 212.534L211.375 212.521C200.6 209.678 190.221 201.159 181.554 189.604C172.894 178.058 165.982 163.533 162.12 148.773C158.257 134.008 157.456 119.05 160.969 106.624C164.476 94.219 172.279 84.3377 185.669 79.642C195.598 76.1601 208.292 77.8157 216.081 84.7692C225.814 93.4578 228.791 101.834 230.77 110.453C231.137 112.053 231.47 113.665 231.806 115.292C233.281 122.432 234.814 129.85 239.538 137.702C242.72 142.992 246.977 147.209 251.455 151.028C253.377 152.668 255.346 154.239 257.288 155.789C257.608 156.044 257.926 156.298 258.244 156.552C260.497 158.354 262.7 160.139 264.76 161.998C268.88 165.716 272.398 169.705 274.549 174.638C276.695 179.563 277.496 185.468 276.115 193.049C274.441 202.229 267.101 210.615 257.758 213.589C242.205 218.54 224.927 219.485 211.476 212.559Z" fill="#A93800" stroke="#590000"/>
<path fill-rule="evenodd" clip-rule="evenodd" d="M176.966 144.241C176.966 144.241 177.684 147.182 177.315 151.908C177.156 153.947 173.909 159.415 173.909 159.415C173.909 159.415 191.385 165.303 201.107 161.895C202.382 161.448 197.808 158.551 195.054 150.529C193.953 147.322 194.229 141.975 194.229 141.975L176.966 144.242V144.241Z" fill="#FFBF9D"/>
<mask id="mask0_1_4943" style="mask-type:luminance" maskUnits="userSpaceOnUse" x="173" y="141" width="29" height="22">
<path d="M176.967 144.241C176.967 144.241 177.684 147.182 177.315 151.909C177.156 153.947 173.909 159.415 173.909 159.415C173.909 159.415 191.385 165.303 201.107 161.895C202.383 161.448 197.808 158.551 195.055 150.529C193.954 147.322 194.229 141.975 194.229 141.975L176.967 144.242V144.241Z" fill="white"/>
</mask>
<g mask="url(#mask0_1_4943)">
<path fill-rule="evenodd" clip-rule="evenodd" d="M171.712 147.114C172.464 150.99 194.634 155.52 202.285 138.627L199.936 130.919L172.018 137.19L171.712 147.113V147.114Z" fill="#F3A176"/>
</g>
<path d="M242.329 243.942L225.052 242.047L219.681 190.962L241.812 191.305L242.329 243.942Z" fill="#FDB993" stroke="#E28156"/>
<path d="M122.733 227.647L123.231 227.682C123.137 229.021 123.393 230.686 123.851 232.458C124.308 234.223 124.956 236.059 125.62 237.727C126.283 239.394 126.959 240.887 127.47 241.963C127.725 242.5 127.939 242.933 128.088 243.231C128.112 243.279 128.134 243.323 128.155 243.364L141.852 240.875C141.751 240.662 141.627 240.399 141.488 240.094C141.101 239.242 140.593 238.061 140.112 236.744C139.631 235.429 139.174 233.97 138.893 232.563C138.613 231.165 138.497 229.775 138.735 228.62L138.735 228.62C139.152 226.592 140.259 223.239 141.669 219.381C143.083 215.511 144.813 211.101 146.491 206.943C148.169 202.784 149.796 198.874 151.003 196.004C151.607 194.569 152.105 193.394 152.453 192.577C152.55 192.35 152.635 192.15 152.708 191.981L131.999 191.452C131.939 191.655 131.856 191.94 131.751 192.297C131.524 193.076 131.199 194.198 130.807 195.572C130.022 198.322 128.97 202.079 127.898 206.111C125.748 214.199 123.54 223.324 123.231 227.682L122.733 227.647ZM122.733 227.647H122.733H122.733Z" fill="#FDB993" stroke="#E28156"/>
<path d="M152.719 191.594L131.193 190.785C131.36 190.258 131.583 189.579 131.861 188.782C132.554 186.793 133.589 184.077 134.953 181.16C137.706 175.273 141.706 168.785 146.793 165.669C157.151 159.327 164.729 156.701 176.523 155.559L176.427 154.564L176.523 155.559C187.666 154.481 194.107 155.179 199.872 155.842L199.986 154.849L199.872 155.842C201.399 156.018 207.016 157.313 213.543 159.753C220.067 162.193 227.348 165.724 232.293 170.301C235.472 173.243 237.817 175.706 239.704 178.862C241.462 181.803 242.852 185.395 244.097 190.611L219.808 191.448L218.344 191.499L218.923 192.842L218.923 192.842L218.924 192.843L218.924 192.843L218.924 192.844L218.925 192.847L218.938 192.877C218.95 192.906 218.968 192.953 218.993 193.018C219.041 193.148 219.113 193.35 219.199 193.621C219.371 194.164 219.6 194.986 219.813 196.073C220.241 198.246 220.609 201.482 220.348 205.674C220.269 206.939 220.165 208.502 220.047 210.281C219.741 214.869 219.34 220.892 219.03 226.918C218.602 235.26 218.341 243.711 218.762 248.422C219.054 251.691 220.874 257.367 222.564 262.111C223.418 264.509 224.255 266.71 224.877 268.311C225.059 268.778 225.222 269.194 225.363 269.55L151.794 269.992C151.9 269.604 152.026 269.138 152.166 268.605C152.603 266.956 153.185 264.669 153.769 262.123C154.929 257.061 156.122 250.865 156.146 246.616C156.178 241.093 155.129 232.885 154.069 225.093C153.949 224.212 153.829 223.336 153.711 222.47C152.771 215.614 151.915 209.366 151.848 205.738C151.775 201.83 152.224 198.615 152.688 196.383C152.92 195.268 153.156 194.4 153.332 193.815C153.419 193.523 153.492 193.301 153.542 193.156C153.567 193.083 153.587 193.029 153.599 192.995L153.613 192.958L153.615 192.951L153.615 192.951L153.615 192.951L153.615 192.95L153.616 192.95L154.115 191.647L152.719 191.594Z" fill="#DB457D" stroke="#C1396C" stroke-width="2"/>
<mask id="mask1_1_4943" style="mask-type:luminance" maskUnits="userSpaceOnUse" x="129" y="154" width="117" height="117">
<path d="M129.859 191.736C129.859 191.736 135.557 171.377 146.271 164.817C156.751 158.399 164.474 155.721 176.427 154.564C187.668 153.476 194.187 154.181 199.986 154.849C203.267 155.226 222.794 160.147 232.972 169.567C239.372 175.49 242.689 179.729 245.345 191.569L219.842 192.448C219.842 192.448 221.88 197.171 221.346 205.736C220.78 214.82 218.93 239.076 219.758 248.333C220.315 254.57 226.837 270.541 226.837 270.541L150.476 271C150.476 271 155.1 254.862 155.146 246.61C155.208 235.736 151.003 214.082 150.848 205.757C150.699 197.769 152.681 192.593 152.681 192.593L129.858 191.735L129.859 191.736Z" fill="white"/>
</mask>
<g mask="url(#mask1_1_4943)">
<path fill-rule="evenodd" clip-rule="evenodd" d="M142.001 250.693C142.001 250.693 213.887 254.491 231.571 204L236.307 274L141.909 273.419L142.001 250.693Z" fill="#C1396C"/>
<path fill-rule="evenodd" clip-rule="evenodd" d="M188.606 146C203.848 146 216.222 150.481 216.222 156C216.222 161.519 203.848 166 188.606 166C173.364 166 160.99 161.519 160.99 156C160.99 150.481 173.364 146 188.606 146Z" fill="#FFBF9D"/>
</g>
<path d="M2.3208 263.499C2.3208 254.387 63.9173 247 139.901 247C215.884 247 277.481 254.387 277.481 263.499C277.481 272.611 215.884 280 139.901 280C63.9173 280 2.3208 272.613 2.3208 263.499Z" fill="#FEFFCC"/>
<path d="M205.791 121.149L205.791 121.149C206.367 120.421 207.055 119.634 207.84 119.164C208.595 118.711 209.411 118.565 210.339 119.059C212.637 120.284 213.275 122.458 213.021 124.653C212.764 126.879 211.596 128.999 210.453 129.926C208.261 131.704 206.509 132.192 205.343 132.21C204.757 132.219 204.318 132.109 204.039 131.986C203.899 131.925 203.81 131.865 203.763 131.823C203.497 129.457 203.711 127.643 203.988 126.426C204.129 125.81 204.286 125.346 204.405 125.041C204.465 124.888 204.515 124.775 204.549 124.702C204.567 124.665 204.58 124.639 204.588 124.623L204.588 124.622C205.09 123.879 205.168 123.237 205.234 122.699C205.236 122.679 205.239 122.659 205.241 122.639C205.306 122.11 205.372 121.679 205.791 121.149ZM203.73 131.791C203.73 131.791 203.732 131.793 203.736 131.798C203.731 131.793 203.73 131.791 203.73 131.791Z" fill="#FDB993" stroke="#F3A176"/>
<path d="M168.704 137.897L168.704 137.897C166.39 132.437 166.504 128.698 166.724 121.465C166.728 121.334 166.732 121.201 166.736 121.067C166.874 116.536 167.958 111.106 169.708 106.267C171.465 101.41 173.86 97.2374 176.565 95.135C178.454 93.6673 181.173 93.0295 184.273 93.2176C187.367 93.4053 190.793 94.4144 194.039 96.1803C200.532 99.7131 206.229 106.23 207.118 115.107L207.615 115.058L207.118 115.108C207.419 118.112 207.106 122.502 206.265 126.784C205.422 131.077 204.064 135.174 202.327 137.635C200.637 140.028 198.122 141.968 195.341 143.552C192.564 145.134 189.55 146.344 186.891 147.293C184.095 148.29 181.803 148.649 179.82 148.434C177.847 148.22 176.142 147.435 174.522 146.074C172.456 144.338 170.131 141.264 168.704 137.897Z" fill="#FDB993" stroke="#F3A176"/>
<path d="M181.963 95.4509L181.475 94.5909L181.072 95.4937L181.072 95.4938L181.072 95.4939L181.071 95.4953L181.069 95.5017L181.056 95.5291C181.045 95.5538 181.028 95.5911 181.004 95.64C180.958 95.738 180.889 95.8826 180.797 96.067C180.614 96.4358 180.341 96.9629 179.985 97.5916C179.272 98.8505 178.23 100.51 176.911 102.121C174.344 105.256 170.854 108.059 166.784 107.652C166.805 107.482 166.832 107.268 166.868 107.017C166.968 106.308 167.134 105.301 167.395 104.114C167.919 101.735 168.824 98.6504 170.343 95.7898C171.864 92.9272 173.981 90.3263 176.913 88.8553C179.828 87.3929 183.617 87.0125 188.565 88.7116L188.569 88.7134L188.615 88.7316C188.655 88.748 188.716 88.7727 188.796 88.8057C188.955 88.8716 189.19 88.9705 189.489 89.1015C190.088 89.3634 190.944 89.7533 191.973 90.2634C194.03 91.2843 196.767 92.7837 199.494 94.6994C202.224 96.6168 204.925 98.939 206.926 101.601C208.907 104.236 210.184 107.179 210.155 110.38L207.308 117.542C207.232 117.512 207.145 117.479 207.05 117.441C206.59 117.26 205.918 116.98 205.081 116.592C203.407 115.815 201.072 114.604 198.438 112.867C193.169 109.393 186.717 103.827 181.963 95.4509Z" fill="#A93800" stroke="#590000"/>
<path fill-rule="evenodd" clip-rule="evenodd" d="M181.204 122.639C180.502 124.636 179.702 126.875 179.298 128.711C179.043 129.867 178.95 130.873 179.101 131.586C179.241 132.248 179.698 132.617 180.333 132.753C181.217 132.942 182.519 132.609 183.496 132.098C183.724 131.979 183.812 131.698 183.693 131.471C183.573 131.244 183.291 131.156 183.063 131.275C182.394 131.625 181.544 131.894 180.86 131.88C180.449 131.872 180.093 131.772 180.013 131.393C179.846 130.605 180.058 129.409 180.417 128.053C180.846 126.436 181.5 124.606 182.084 122.947C182.169 122.705 182.041 122.44 181.798 122.355C181.555 122.27 181.289 122.398 181.203 122.64L181.204 122.639Z" fill="#E28156"/>
<path fill-rule="evenodd" clip-rule="evenodd" d="M169.503 114.711C173.254 114.349 175.606 114.723 179.37 115.86L179.432 115.881C179.443 115.877 179.368 115.598 179.352 115.549C179.223 115.149 179.12 114.914 178.947 114.541C178.894 114.426 178.678 113.946 178.574 113.743C178.167 112.95 178.13 113.018 177.329 112.823C174.868 112.225 168.614 113.208 169.503 114.711V114.711Z" fill="#57310A"/>
<path fill-rule="evenodd" clip-rule="evenodd" d="M199.277 119.553C195.923 117.961 193.605 117.526 189.704 117.336L189.638 117.335C189.63 117.327 189.799 117.091 189.832 117.049C190.094 116.718 190.273 116.531 190.568 116.239C190.658 116.148 191.031 115.77 191.2 115.615C191.861 115.006 191.871 115.082 192.685 115.167C195.184 115.428 200.64 118.439 199.277 119.553Z" fill="#57310A"/>
<path fill-rule="evenodd" clip-rule="evenodd" d="M174.682 117.802C173.858 117.649 172.97 118.557 172.7 119.828C172.43 121.099 172.88 122.255 173.704 122.407C174.528 122.56 175.416 121.652 175.686 120.381C175.955 119.109 175.505 117.954 174.682 117.801V117.802Z" fill="#43341D"/>
<path fill-rule="evenodd" clip-rule="evenodd" d="M192.714 120.419C191.925 120.273 191.068 121.177 190.801 122.435C190.534 123.694 190.957 124.835 191.746 124.981C192.534 125.127 193.391 124.223 193.659 122.965C193.926 121.706 193.503 120.565 192.714 120.419Z" fill="#43341D"/>
<path fill-rule="evenodd" clip-rule="evenodd" d="M174.066 118.801C174.373 118.801 174.623 119.061 174.623 119.382C174.623 119.703 174.374 119.963 174.066 119.963C173.758 119.963 173.509 119.703 173.509 119.382C173.509 119.061 173.758 118.801 174.066 118.801Z" fill="white"/>
<path fill-rule="evenodd" clip-rule="evenodd" d="M192.214 121.161C192.521 121.161 192.771 121.421 192.771 121.742C192.771 122.063 192.522 122.323 192.214 122.323C191.906 122.323 191.657 122.063 191.657 121.742C191.657 121.421 191.906 121.161 192.214 121.161Z" fill="white"/>
<path d="M177.289 139.217C177.289 139.217 182.472 143.024 185.786 138.317" stroke="#DF5C5C" stroke-linecap="round" stroke-linejoin="round"/>
<path fill-rule="evenodd" clip-rule="evenodd" d="M86.584 249.727L141.272 242.065C141.272 242.065 179.893 260.602 179.907 260.535C179.92 260.466 97.1532 272.982 97.1532 272.982L86.584 249.727Z" fill="#CFCFCF"/>
<mask id="mask2_1_4943" style="mask-type:luminance" maskUnits="userSpaceOnUse" x="86" y="242" width="94" height="31">
<path d="M86.584 249.727L141.272 242.065C141.272 242.065 179.893 260.603 179.907 260.535C179.92 260.466 97.1532 272.983 97.1532 272.983L86.584 249.727Z" fill="white"/>
</mask>
<g mask="url(#mask2_1_4943)">
<path d="M173.593 254.539L134.538 260.341L121.222 249.289L148.521 241.581L173.593 254.539Z" fill="#F4F4F4" stroke="#B1B1B1"/>
</g>
<path fill-rule="evenodd" clip-rule="evenodd" d="M35.6865 255.354C35.0054 255.123 34.447 254.628 34.1393 253.98C30.4229 246.163 6.34486 195.519 2.25575 186.919C1.88568 186.141 1.91915 185.233 2.34367 184.484C2.55298 184.114 2.78592 183.704 3.00507 183.318C3.51555 182.419 4.50437 181.898 5.5378 181.983C14.3709 182.71 55.0291 186.058 63.4363 186.75C64.3798 186.828 65.2105 187.399 65.6173 188.25C70.3272 198.108 98.9162 257.943 104.197 268.995C104.696 270.039 105.818 270.64 106.967 270.478C117.398 269.016 166.953 262.069 178.681 260.425C180.08 260.229 181.387 261.156 181.66 262.536C181.66 262.536 181.66 262.537 181.66 262.538C181.799 263.248 181.642 263.984 181.223 264.575C180.805 265.166 180.161 265.561 179.443 265.667C166.04 267.652 108.01 276.245 101.284 277.241C100.865 277.303 100.438 277.264 100.038 277.129C93.9222 275.059 43.6639 258.053 35.6852 255.353L35.6865 255.354Z" fill="#B1B1B1"/>
<mask id="mask3_1_4943" style="mask-type:luminance" maskUnits="userSpaceOnUse" x="2" y="181" width="180" height="97">
<path d="M35.6865 255.354C35.0054 255.123 34.447 254.628 34.1393 253.98C30.4229 246.163 6.34486 195.519 2.25575 186.919C1.88568 186.141 1.91915 185.233 2.34367 184.484C2.55298 184.114 2.78592 183.704 3.00507 183.318C3.51555 182.419 4.50437 181.898 5.5378 181.983C14.3709 182.71 55.0291 186.058 63.4363 186.75C64.3798 186.828 65.2105 187.399 65.6173 188.25C70.3272 198.108 98.9162 257.943 104.197 268.995C104.696 270.039 105.818 270.64 106.967 270.478C117.398 269.016 166.953 262.069 178.681 260.425C180.08 260.229 181.387 261.156 181.66 262.536C181.66 262.536 181.66 262.537 181.66 262.538C181.799 263.248 181.642 263.984 181.223 264.575C180.805 265.166 180.161 265.561 179.443 265.667C166.04 267.652 108.01 276.245 101.284 277.241C100.865 277.303 100.438 277.264 100.038 277.129C93.9222 275.059 43.6639 258.053 35.6852 255.353L35.6865 255.354Z" fill="white"/>
</mask>
<g mask="url(#mask3_1_4943)">
<path d="M62.8799 193.342L62.88 193.342C65.4308 199.151 74.8937 220.701 83.7342 240.88C88.1545 250.969 92.4191 260.715 95.5862 267.978C97.1698 271.609 98.4788 274.62 99.3957 276.742C99.8542 277.803 100.214 278.642 100.461 279.224C100.486 279.281 100.509 279.336 100.531 279.388C100.006 279.288 99.2464 279.127 98.2814 278.912C96.2724 278.464 93.3924 277.786 89.9292 276.952C83.0036 275.283 73.7559 272.994 64.5027 270.683C55.2497 268.372 45.9925 266.04 39.0485 264.285C35.5765 263.407 32.6828 262.675 30.6571 262.161C29.6443 261.904 28.8485 261.702 28.3059 261.564L27.7209 261.416L-1.93787 186.951L-0.418896 187.072L5.78737 187.57L25.3099 189.135L60.9803 191.994C60.9803 191.994 60.9803 191.994 60.9804 191.994C61.8157 192.061 62.5456 192.58 62.8799 193.342Z" fill="#CFCFCF" stroke="#5A5A5A"/>
</g>
<path d="M43.3416 231.939C38.9872 230.381 36.8449 226.474 37.9356 223.47C39.0286 220.46 43.1988 218.807 47.5541 220.365L47.5542 220.365C51.9084 221.923 54.0508 225.83 52.9601 228.835C51.8671 231.844 47.6969 233.497 43.3416 231.939ZM43.3416 231.939L43.0047 232.881L43.3416 231.939Z" fill="#EDEDED" stroke="#5A5A5A" stroke-width="2"/>
<path d="M175.224 246.185L175.053 246.655C174.115 246.315 173.169 245.919 172.227 245.523L172.151 245.491C171.231 245.105 170.315 244.719 169.391 244.377C167.492 243.673 165.607 243.169 163.715 243.223M175.224 246.185L143.233 255.475C143.394 253.847 144.327 252.272 145.805 250.805C147.28 249.34 149.261 248.019 151.429 246.904C155.776 244.667 160.767 243.307 163.715 243.223M175.224 246.185L175.053 246.655C175.278 246.737 176.015 246.932 176.887 247.091C177.76 247.25 178.83 247.383 179.706 247.312L179.706 247.312C179.818 247.303 180.113 247.245 180.506 247.164C180.921 247.078 181.494 246.956 182.201 246.802C183.616 246.493 185.575 246.058 187.898 245.537C191.578 244.713 196.173 243.676 200.969 242.593C202.226 242.309 203.497 242.022 204.77 241.735C210.893 240.354 217.036 238.97 221.762 237.923C224.125 237.399 226.132 236.959 227.605 236.646C228.342 236.489 228.944 236.364 229.388 236.276C229.848 236.185 230.108 236.141 230.188 236.134M175.224 246.185L230.188 236.134M163.715 243.223L163.701 242.723L163.715 243.223ZM230.188 236.134C237.007 235.556 241.203 238.555 242.32 242.056C243.426 245.525 241.605 249.812 235.706 252.056C233.369 252.944 228.728 253.642 223.003 254.189C217.303 254.733 210.597 255.123 204.179 255.419C199.091 255.653 194.189 255.828 190.115 255.973C189.05 256.011 188.041 256.047 187.101 256.081C184.834 256.164 182.959 256.239 181.644 256.312C180.988 256.349 180.463 256.386 180.096 256.424C179.915 256.443 179.759 256.464 179.641 256.487C179.609 256.494 179.574 256.502 179.538 256.511C179.353 256.477 179.11 256.45 178.849 256.427C178.452 256.392 177.941 256.359 177.358 256.329C176.191 256.27 174.721 256.221 173.262 256.189C171.803 256.156 170.35 256.14 169.219 256.143C168.654 256.145 168.166 256.151 167.796 256.164C167.611 256.17 167.452 256.178 167.325 256.187C167.215 256.196 167.085 256.208 166.987 256.236C165.091 256.772 163.375 257.082 161.425 257.435C160.878 257.534 160.312 257.636 159.718 257.748C155.918 258.462 151.907 257.985 149.205 257.664C148.704 257.604 148.248 257.55 147.846 257.51C147.662 257.491 147.413 257.471 147.123 257.448C146.556 257.403 145.831 257.345 145.119 257.26C144.589 257.196 144.098 257.121 143.728 257.031C143.541 256.986 143.404 256.941 143.313 256.901C143.29 256.891 143.274 256.883 143.263 256.877C143.097 256.542 143.135 256.248 143.189 255.842C143.204 255.729 143.22 255.608 143.233 255.476L230.188 236.134Z" fill="#FDB993" stroke="#E28156"/>
<path d="M122.18 246.558C123.436 248.337 125.628 250.327 127.479 251.085L127.479 251.085C130.223 252.207 131.709 252.76 133.214 253.008C134.721 253.255 136.268 253.201 139.153 253.048M122.18 246.558L146.455 246.935C146.483 247.325 146.534 247.651 146.576 247.923L146.577 247.928C146.621 248.209 146.651 248.41 146.654 248.595C146.659 248.905 146.59 249.203 146.168 249.703L146.168 249.703C144.952 251.143 144.014 251.914 143.004 252.362C141.985 252.813 140.842 252.958 139.153 253.048M122.18 246.558C122.044 246.103 121.874 245.508 121.815 244.934C121.749 244.3 121.838 243.857 122.068 243.622L122.068 243.622C122.132 243.556 122.37 243.374 122.806 243.082C123.223 242.803 123.782 242.45 124.449 242.05C125.781 241.25 127.53 240.271 129.407 239.339C131.284 238.406 133.279 237.525 135.103 236.917C136.946 236.304 138.547 235.992 139.668 236.134C140.534 236.244 141.439 236.819 142.225 237.542C143.004 238.258 143.597 239.055 143.846 239.492L143.846 239.492C145.164 241.808 146.275 244.365 146.455 246.935L122.18 246.558ZM139.153 253.048L139.179 253.547L139.153 253.048C139.153 253.048 139.153 253.048 139.153 253.048Z" fill="#FDB993" stroke="#E28156"/>
<defs>
<filter id="filter0_d_1_4943" x="18.6333" y="114.921" width="111.111" height="12.8019" filterUnits="userSpaceOnUse" color-interpolation-filters="sRGB">
<feFlood flood-opacity="0" result="BackgroundImageFix"/>
<feColorMatrix in="SourceAlpha" type="matrix" values="0 0 0 0 0 0 0 0 0 0 0 0 0 0 0 0 0 0 127 0" result="hardAlpha"/>
<feOffset dy="1"/>
<feComposite in2="hardAlpha" operator="out"/>
<feColorMatrix type="matrix" values="0 0 0 0 0.662745 0 0 0 0 0.219608 0 0 0 0 0 0 0 0 1 0"/>
<feBlend mode="normal" in2="BackgroundImageFix" result="effect1_dropShadow_1_4943"/>
<feBlend mode="normal" in="SourceGraphic" in2="effect1_dropShadow_1_4943" result="shape"/>
</filter>
<filter id="filter1_d_1_4943" x="18.6333" y="98.6934" width="111.111" height="12.8019" filterUnits="userSpaceOnUse" color-interpolation-filters="sRGB">
<feFlood flood-opacity="0" result="BackgroundImageFix"/>
<feColorMatrix in="SourceAlpha" type="matrix" values="0 0 0 0 0 0 0 0 0 0 0 0 0 0 0 0 0 0 127 0" result="hardAlpha"/>
<feOffset dy="1"/>
<feComposite in2="hardAlpha" operator="out"/>
<feColorMatrix type="matrix" values="0 0 0 0 0.662745 0 0 0 0 0.219608 0 0 0 0 0 0 0 0 1 0"/>
<feBlend mode="normal" in2="BackgroundImageFix" result="effect1_dropShadow_1_4943"/>
<feBlend mode="normal" in="SourceGraphic" in2="effect1_dropShadow_1_4943" result="shape"/>
</filter>
<filter id="filter2_d_1_4943" x="18.6333" y="82.4658" width="111.111" height="12.8019" filterUnits="userSpaceOnUse" color-interpolation-filters="sRGB">
<feFlood flood-opacity="0" result="BackgroundImageFix"/>
<feColorMatrix in="SourceAlpha" type="matrix" values="0 0 0 0 0 0 0 0 0 0 0 0 0 0 0 0 0 0 127 0" result="hardAlpha"/>
<feOffset dy="1"/>
<feComposite in2="hardAlpha" operator="out"/>
<feColorMatrix type="matrix" values="0 0 0 0 0.662745 0 0 0 0 0.219608 0 0 0 0 0 0 0 0 1 0"/>
<feBlend mode="normal" in2="BackgroundImageFix" result="effect1_dropShadow_1_4943"/>
<feBlend mode="normal" in="SourceGraphic" in2="effect1_dropShadow_1_4943" result="shape"/>
</filter>
<filter id="filter3_d_1_4943" x="18.6333" y="66.2382" width="111.111" height="12.8019" filterUnits="userSpaceOnUse" color-interpolation-filters="sRGB">
<feFlood flood-opacity="0" result="BackgroundImageFix"/>
<feColorMatrix in="SourceAlpha" type="matrix" values="0 0 0 0 0 0 0 0 0 0 0 0 0 0 0 0 0 0 127 0" result="hardAlpha"/>
<feOffset dy="1"/>
<feComposite in2="hardAlpha" operator="out"/>
<feColorMatrix type="matrix" values="0 0 0 0 0.662745 0 0 0 0 0.219608 0 0 0 0 0 0 0 0 1 0"/>
<feBlend mode="normal" in2="BackgroundImageFix" result="effect1_dropShadow_1_4943"/>
<feBlend mode="normal" in="SourceGraphic" in2="effect1_dropShadow_1_4943" result="shape"/>
</filter>
<filter id="filter4_d_1_4943" x="56.5034" y="150.712" width="42.4814" height="12.8415" filterUnits="userSpaceOnUse" color-interpolation-filters="sRGB">
<feFlood flood-opacity="0" result="BackgroundImageFix"/>
<feColorMatrix in="SourceAlpha" type="matrix" values="0 0 0 0 0 0 0 0 0 0 0 0 0 0 0 0 0 0 127 0" result="hardAlpha"/>
<feOffset dy="1"/>
<feComposite in2="hardAlpha" operator="out"/>
<feColorMatrix type="matrix" values="0 0 0 0 0.662745 0 0 0 0 0.219608 0 0 0 0 0 0 0 0 1 0"/>
<feBlend mode="normal" in2="BackgroundImageFix" result="effect1_dropShadow_1_4943"/>
<feBlend mode="normal" in="SourceGraphic" in2="effect1_dropShadow_1_4943" result="shape"/>
</filter>
<linearGradient id="paint0_linear_1_4943" x1="59.374" y1="42.4868" x2="89.0069" y2="42.4868" gradientUnits="userSpaceOnUse">
<stop stop-color="#F06700" stop-opacity="0"/>
<stop offset="1" stop-color="#F06700"/>
</linearGradient>
<clipPath id="clip0_1_4943">
<rect width="220.931" height="280" fill="white" transform="translate(29.4351)"/>
</clipPath>
<clipPath id="clip1_1_4943">
<rect width="15.3601" height="15.2954" fill="white" transform="translate(66.2861 34.6173)"/>
</clipPath>
</defs>
</svg>
