<svg width="1512" height="155" viewBox="0 0 1512 155" fill="none" xmlns="http://www.w3.org/2000/svg">
<g filter="url(#filter0_d_1_5339)">
<path d="M1512 156.036L1512 25.5848C1511.55 25.5449 1511.08 25.5106 1510.63 25.4707C1510.45 25.0883 1510.29 24.7344 1510.05 24.2321L1503.18 24.2321C1503 24.489 1502.7 24.9285 1502.3 25.5049L1498.71 25.5049C1498.33 26.0643 1498.02 26.5152 1497.62 27.103C1493.99 27.4626 1490.22 27.8336 1486.25 28.2274C1486.03 28.4957 1485.68 28.9351 1485.28 29.4146L1478.38 29.4146C1475.84 28.3872 1474.13 27.7023 1472.47 27.0288C1469.11 28.3986 1465.44 28.1418 1462.16 27.8621C1455.62 27.3085 1455.67 27.143 1448.12 27.9535C1444.28 28.3644 1441.03 27.2343 1437.44 27.0117C1436.69 26.1327 1435.94 25.2595 1435.06 24.2264L1428.53 24.2264C1427.2 25.0369 1425.7 25.9672 1423.9 27.0745L1416.01 27.0745C1415.86 26.772 1415.68 26.4238 1415.32 25.7161C1411.77 25.4992 1407.85 25.6876 1404.04 25.6134C1403.58 26.1898 1403.24 26.635 1402.81 27.1715C1401.59 27.1715 1400.32 27.2571 1399.12 27.1544C1393.32 26.6635 1387.87 28.0219 1382.19 27.9192C1379.33 27.8678 1376.49 27.5482 1373.84 27.3599C1372.46 26.0015 1371.27 24.8371 1369.95 23.5472C1368.53 23.4217 1367.14 23.3018 1365.75 23.1819C1365.4 22.7311 1365.07 22.2916 1364.6 21.6809C1364.01 22.2973 1363.54 22.7824 1362.86 23.473C1362.48 22.8795 1362.22 22.4571 1361.86 21.8978L1356.73 21.8978C1356.35 21.3384 1356.05 20.8932 1355.66 20.3054L1339.84 20.3054C1339.56 19.8545 1339.35 19.512 1338.9 18.7757C1333.91 18.4104 1328.44 18.0166 1322.69 17.6C1322.62 17.423 1322.48 17.0749 1322.25 16.5327L1317.41 16.5327C1315.44 17.6114 1313.34 18.7586 1310.76 20.1684C1310.26 20.1855 1309.07 20.2254 1307.7 20.2711C1307.41 20.6878 1307.1 21.1387 1306.72 21.6752L1299.92 21.6752C1299.76 21.3384 1299.61 20.9902 1299.37 20.448C1298.24 20.3396 1296.85 20.2083 1295.26 20.0542C1295.13 19.7403 1294.99 19.3864 1294.83 19.004C1289.88 17.7484 1284.47 17.7883 1278.95 17.9367C1278.44 17.3945 1277.95 16.8637 1277.18 16.0361C1274.24 17.7027 1271.31 19.3122 1266.76 18.6273C1264.89 20.5051 1263.17 22.2117 1261.71 23.6785C1257.35 24.7972 1254.04 23.4559 1249.76 23.2048C1248.34 24.4262 1246.82 25.7446 1245.22 27.1258C1242.14 27.3941 1238.47 26.6635 1235.48 27.9306C1233.72 27.5996 1231.96 27.2742 1229.5 26.8176C1229.41 26.2012 1229.27 25.2366 1229.12 24.3406C1226.11 23.4844 1226.49 24.8485 1225.73 25.522C1224.59 25.5848 1223.38 25.6533 1221.97 25.7332C1221.83 26.0757 1221.69 26.4295 1221.53 26.8233C1215.49 28.4956 1208.66 27.7537 1202.24 27.9877C1201.97 28.5071 1201.79 28.8552 1201.54 29.3461L1193.06 29.3461C1192.82 30.4248 1192.62 31.3837 1192.37 32.5137C1188.38 32.548 1184.31 32.6564 1182.25 35.339C1181.27 34.6826 1180.67 34.2774 1179.33 33.3813C1177.55 33.1302 1174.59 32.7078 1171.56 32.2797C1171.43 32.0229 1171.25 31.6747 1170.99 31.1839L1162.59 31.1839C1162.4 31.4578 1162.1 31.9087 1161.72 32.4738L1156.51 32.4738C1155.72 31.5948 1154.85 30.6188 1153.85 29.5059L1145.91 29.5059C1145.47 28.9237 1145.14 28.4785 1144.75 27.9534C1142.47 27.9534 1140.17 28.079 1137.95 27.9135C1136.11 27.7765 1134.39 27.2971 1132.02 26.8633C1131.84 26.6749 1131.35 26.1499 1130.86 25.6305L1129.08 25.6305C1128.79 26.0471 1128.49 26.498 1128.01 27.2114C1121.31 26.5494 1114.52 29.7399 1107.61 27.0345C1107.44 26.9375 1107.15 26.8462 1107.15 26.7491C1107.11 25.9786 1107.12 25.2081 1107.12 24.8485C1104.78 23.6614 1102.86 22.7025 1100.76 21.6409C1099.67 22.4057 1098.91 23.4958 1097.47 23.8155C1095.73 24.2036 1094.94 24.7058 1094.31 25.6305L1090.76 25.6305C1088.16 26.6635 1086.6 27.2742 1084.95 27.9249L1074.5 27.9249C1071.46 30.6702 1068.47 33.3756 1065.13 36.4063C1061.5 36.6403 1056.84 35.9953 1052.93 37.2681C1052.27 37.4793 1052.16 38.1128 1051.7 38.6836C1050.1 38.7292 1048.4 38.7749 1046.54 38.832C1046.23 39.2543 1045.92 39.7052 1045.54 40.2303L1028.29 40.2303C1027.91 39.7566 1027.57 39.3114 1027.16 38.8833C1027.09 38.8091 1026.73 38.8034 1026.02 38.6779C1023.85 40.6013 1020.27 41.4631 1015.9 41.0693C1015.59 41.68 1015.4 42.0282 1015.15 42.5133L1004 42.5133C1003.03 43.6035 1002.16 44.5852 1001.1 45.7609C994.788 44.939 991.169 46.9994 986.847 49.4366L981.072 49.4366C979.739 48.6204 978.239 47.6958 976.477 46.6227C971.643 46.2746 966.345 45.8865 960.963 45.4984C960.689 45.1445 960.344 44.705 959.999 44.2541L950.093 44.2541C947.593 45.2358 946.033 45.8522 944.295 46.5371C941.449 46.1148 938.056 47.1821 935.103 45.7723C934.293 45.3842 931.924 45.4641 930.674 45.7609C926.185 46.8282 921.447 46.3716 916.887 46.5086C915.922 47.5474 915.018 48.5176 914.077 49.5336L910.898 49.5336C909.946 48.5747 908.898 47.5302 907.862 46.4857C906.814 46.4857 905.802 46.4857 904.778 46.4857C903.588 47.6558 902.397 48.8258 901.052 50.15C899.147 50.2584 897.242 50.3669 895.634 50.4525C893.67 51.6796 891.86 52.8097 889.824 54.0825L881.776 54.0825C881.395 54.6418 881.097 55.087 880.692 55.6749L863.333 55.6749C863.071 56.1258 862.869 56.4739 862.476 57.1417C860.464 57.2045 858.107 57.273 855.761 57.3472C855.321 56.7707 854.975 56.3312 854.57 55.8061C853.654 55.7833 852.665 55.7605 851.713 55.7434C848.32 57.7467 845.486 60.1781 839.081 59.5731C838.557 60.1325 838.08 60.6347 837.414 61.3539C837.092 60.7888 836.902 60.4464 836.604 59.927C834.187 59.6302 831.485 59.2934 828.21 58.8882C827.377 59.5332 826.365 60.3265 825.424 61.0457L817.304 61.0457C817.066 60.5719 816.876 60.2238 816.709 59.887C811.911 59.516 807.113 59.1507 802.184 58.7741C801.886 58.3574 801.565 57.9122 801.148 57.33L782.205 57.33C782.015 56.862 781.872 56.5139 781.658 55.9545L774.478 55.9545C774.359 56.257 774.204 56.6109 773.99 57.136L769.228 57.136C767.561 58.7798 765.263 59.7158 761.929 59.5959C758.774 59.4818 755.643 59.9441 752.381 59.1393C750.095 58.58 747.023 58.8483 744.403 58.7512C743.725 58.209 743.046 57.6668 741.832 56.6965C740.939 57.7239 740.498 58.2375 740.046 58.7683L734.831 58.7683C734.652 58.346 734.51 57.9978 734.295 57.4727L716.948 57.4727C715.615 58.7626 713.364 59.6302 709.983 59.6245C705.661 59.6188 701.351 59.6245 696.958 59.6245C696.077 60.6119 695.196 61.5936 694.255 62.6438L689.255 62.6437C688.433 61.7248 687.647 60.8573 686.826 59.9327C685.064 59.613 683.075 59.2535 681.182 58.911L681.182 55.0699C679.087 54.014 677.337 53.1407 674.991 51.965L663.049 51.965C662.895 52.3588 662.752 52.7126 662.525 53.2606L657.025 53.2606C656.715 52.8154 656.406 52.3702 655.965 51.7538C655.346 52.4273 654.87 52.9409 654.405 53.4432L651.131 53.4432C650.286 52.4958 649.405 51.5141 648.56 50.5723C646.619 50.1271 644.702 49.6877 643.059 49.3053C642.809 48.7916 642.642 48.4434 642.464 48.0781L639.142 48.0781C638.57 48.5747 637.939 49.1397 636.963 49.9959C634.272 48.3692 632.022 47.0051 629.522 45.4983C628.391 45.8579 627.402 46.1775 625.795 46.6912C624.605 45.9036 623.366 45.0931 621.807 44.0714L617.259 44.0714C617.008 43.5863 616.83 43.2381 616.58 42.7587L609.841 42.7587C609.353 43.1982 608.734 43.7632 607.484 44.8933C606.591 43.7975 606.174 43.2952 605.733 42.753C604.579 42.6845 603.376 42.616 601.959 42.5304C601.816 42.1994 601.673 41.8455 601.412 41.2177C600.495 41.1834 599.316 41.1663 598.149 41.0693C597.721 41.035 597.268 40.8353 596.982 40.6526C594.185 38.9004 591.649 37.0512 587.946 35.6985C586.946 35.3332 586.672 34.4542 585.874 33.5924C582.648 33.2386 578.909 32.8333 574.528 32.3539C574.444 32.1998 574.206 31.766 573.885 31.1838L571.218 31.1838C566.42 28.6896 562.181 26.4808 557.407 24.0038L545.489 24.0038C545.191 23.1648 544.929 22.457 544.679 21.7664L542.774 21.7664C542.322 22.263 541.834 22.7766 541.214 23.4558C540.798 22.8508 540.476 22.4 540.107 21.8577L531.094 21.8577C527.82 24.0437 524.748 26.0813 521.581 28.1874C519.545 27.8506 517.974 27.5938 516.974 27.434C512.985 27.6908 509.413 27.9191 505.734 28.1531C505.592 28.467 505.437 28.8209 505.163 29.4487L499.781 29.4487C499.46 30.0709 499.281 30.419 499.031 30.9042L490.649 30.9042C490.459 30.6131 490.149 30.1679 489.745 29.5572C488.673 29.5229 487.459 29.483 486.101 29.4373C485.804 29.0207 485.494 28.5698 485.113 28.0333L461.277 28.0333C459.265 28.838 457.598 29.2661 456.657 29.951C455.61 30.7044 455.217 31.6975 454.538 32.565L451.073 32.565C450.812 32.1826 450.514 31.7432 450.121 31.1667L445.001 31.1667C444.62 30.6074 444.311 30.1622 443.93 29.6028L435.608 29.6028C435.453 29.8654 435.262 30.2135 434.869 30.8813C428.809 31.3151 422.308 30.8357 415.867 31.1039C415.498 31.5719 415.153 32.0171 414.546 32.7934C414.105 32.1712 413.831 31.8002 413.427 31.2124L408.474 31.2124C407.95 32.274 405.866 32.7876 404.033 33.1415C402.413 32.879 400.854 32.6221 398.961 32.3139C398.699 32.0457 398.246 31.5662 397.687 30.9841C397.199 31.5833 396.841 32.0285 396.46 32.508L386.65 32.508C386.483 32.097 386.34 31.7432 386.078 31.1153C385.09 31.0868 383.911 31.0526 382.721 31.0183C381.84 31.7432 380.971 32.4509 379.994 33.2442L370.172 33.2442C369.791 33.8036 369.481 34.2545 369.076 34.8366L362.397 34.8366C362.147 35.2932 361.969 35.6414 361.623 36.2864L349.943 36.2864L349.943 39.8536C346.252 40.9323 342.978 41.7028 338.942 40.3901C337.549 39.9392 335.096 40.3159 333.263 40.3159C332.953 39.7109 332.775 39.3627 332.525 38.8776L321.297 38.8776C320.916 38.3182 320.595 37.8673 320.226 37.3251L305.962 37.3251C305.093 38.2669 304.2 39.2428 303.283 40.236L289.032 40.236C288.96 38.6949 285.008 38.5294 285.043 36.7372C285.067 35.7099 282.043 34.6654 280.126 33.4668C271.089 32.8561 261.184 34.3344 252.099 32.2625C251.897 31.8173 251.742 31.4692 251.599 31.1324L244.646 31.1324C244.468 31.5605 244.313 31.9087 244.098 32.428L237.348 32.428C236.121 31.6518 234.657 30.7158 232.883 29.5914L222.358 29.5914C220.667 28.2045 219.179 26.9773 217.643 25.7217L203.427 25.7217C203.237 26.1555 203.082 26.5036 202.927 26.8689C202.772 26.9488 202.522 27.1315 202.427 27.1143C197.748 26.2639 193.271 29.2832 188.342 27.2399C187.283 26.8004 184.854 27.063 183.115 27.2114C181.77 27.3255 179.425 27.7536 179.425 28.0447C179.425 29.5058 175.174 29.2204 175.495 30.6873C175.519 30.7843 174.734 30.9213 173.745 31.2123C173.245 30.7729 172.745 30.3277 171.852 29.5457C169.828 29.5286 167.804 29.5343 165.518 29.5343C165.268 29.8996 164.971 30.3391 164.578 30.9098L160.911 30.9098C160.434 30.4761 159.803 29.911 158.553 28.7866C157.66 29.8768 157.255 30.3733 156.731 31.0069L150.326 31.0069C149.386 32.3824 148.54 33.6266 147.695 34.8709L141.385 34.8709C140.575 34.2088 139.706 33.5068 138.73 32.7134L128.002 32.7134C126.097 31.5833 124.561 30.6701 122.633 29.5286L113.37 29.5286C113.179 29.0606 113.024 28.7124 112.774 28.1017C108.274 28.4784 104.369 26.4865 98.9634 27.5196C94.7129 28.3357 89.5695 27.9476 84.4617 28.1017C84.2951 28.3586 83.9974 28.8038 83.6283 29.3574C83.0449 29.4088 82.3424 29.4715 81.509 29.54C81.1757 29.0492 80.8661 28.604 80.4851 28.0504L77.2824 28.0504C75.6273 29.0206 74.0797 29.9281 72.3295 30.9612L56.9944 30.9612C56.6134 30.4304 56.2919 29.9852 56.0181 29.5971L44.6835 29.5971C44.4453 30.048 44.2669 30.3962 44.0169 30.8927L29.6937 30.8927C29.3247 31.452 29.027 31.8972 28.646 32.4623L24.8955 32.4623C24.6693 32.1369 24.3599 31.6861 23.9551 31.1039L15.8469 31.1039C15.4421 30.5388 15.1207 30.0936 14.7634 29.6028C13.6087 29.54 12.4061 29.4715 10.9894 29.3916C10.8464 29.0435 10.7036 28.6896 10.5488 28.3072C7.11988 27.6851 3.60768 27.3655 0.000133331 27.2285L0.00012207 156.036L1512 156.036Z" fill="white"/>
</g>
<defs>
<filter id="filter0_d_1_5339" x="-20" y="0.0361328" width="1552" height="180" filterUnits="userSpaceOnUse" color-interpolation-filters="sRGB">
<feFlood flood-opacity="0" result="BackgroundImageFix"/>
<feColorMatrix in="SourceAlpha" type="matrix" values="0 0 0 0 0 0 0 0 0 0 0 0 0 0 0 0 0 0 127 0" result="hardAlpha"/>
<feOffset dy="4"/>
<feGaussianBlur stdDeviation="10"/>
<feComposite in2="hardAlpha" operator="out"/>
<feColorMatrix type="matrix" values="0 0 0 0 0 0 0 0 0 0 0 0 0 0 0 0 0 0 0.2 0"/>
<feBlend mode="normal" in2="BackgroundImageFix" result="effect1_dropShadow_1_5339"/>
<feBlend mode="normal" in="SourceGraphic" in2="effect1_dropShadow_1_5339" result="shape"/>
</filter>
</defs>
</svg>
